<svg width="414" height="394" viewBox="0 0 414 394" fill="none" xmlns="http://www.w3.org/2000/svg">
<path fill-rule="evenodd" clip-rule="evenodd" d="M1137.53 163.651L1083.76 203.383C1029.98 243.114 922.44 322.577 814.896 362.309C707.352 402.04 599.808 402.04 492.264 372.242C384.72 342.443 277.176 282.846 169.632 262.98C62.088 243.114 -45.4561 262.98 -99.228 272.913L-153 282.846V-15.1405H-99.228C-45.4561 -15.1405 62.088 -15.1405 169.632 -15.1405C277.176 -15.1405 384.72 -15.1405 492.264 -15.1405C599.808 -15.1405 707.352 -15.1405 814.896 -15.1405C922.44 -15.1405 1029.98 -15.1405 1083.76 -15.1405H1137.53V163.651Z" fill="#1C6859"/>
<circle opacity="0.1" cx="431" cy="165" r="64" fill="#FDEAD5"/>
<circle opacity="0.1" cx="353.5" cy="310.5" r="54.5" fill="#F2E0E6"/>
<circle opacity="0.1" cx="135" cy="154" r="33" fill="#FDEAD5"/>
<circle opacity="0.1" cx="288" cy="122" r="40" fill="#EEF5F7"/>
<circle opacity="0.1" cx="3" cy="242" r="57" fill="#EEF5E5"/>
</svg>
