<svg width="210" height="210" viewBox="0 0 210 210" fill="none" xmlns="http://www.w3.org/2000/svg">
<circle cx="105" cy="105" r="105" fill="white"/>
<path d="M51.9712 144.211C52.6008 143.815 53.1516 143.262 53.5451 142.55C53.9386 141.839 54.096 141.048 54.096 140.178C54.096 139.308 53.9386 138.518 53.5451 137.806C53.1516 137.094 52.6795 136.541 51.9712 136.145C51.3416 135.75 50.5547 135.513 49.7678 135.513C48.9808 135.513 48.1939 135.75 47.5643 136.145C46.9347 136.541 46.3839 137.094 45.9904 137.806C45.5969 138.518 45.4395 139.308 45.4395 140.178C45.4395 141.048 45.5969 141.839 45.9904 142.55C46.3839 143.262 46.856 143.815 47.5643 144.211C48.1939 144.606 48.9808 144.843 49.7678 144.843C50.5547 144.843 51.3416 144.606 51.9712 144.211ZM56.142 127.922C56.3781 128.159 56.4568 128.475 56.4568 128.871V140.178C56.4568 141.443 56.142 142.629 55.5912 143.657C54.9616 144.685 54.1747 145.555 53.1516 146.108C52.1286 146.741 51.0269 146.978 49.7678 146.978C48.5086 146.978 47.4069 146.662 46.3052 146.108C45.2822 145.476 44.4952 144.685 43.8656 143.657C43.3148 142.629 43 141.443 43 140.178C43 138.913 43.2361 137.727 43.7869 136.699C44.3378 135.671 45.0461 134.801 46.0691 134.248C47.0134 133.615 48.1152 133.378 49.2169 133.378C50.1612 133.378 51.0269 133.615 51.8138 134.01C52.6008 134.406 53.309 134.959 53.8599 135.671V128.871C53.8599 128.475 53.9386 128.159 54.1747 127.922C54.5681 127.685 54.8829 127.606 55.1977 127.606C55.5912 127.606 55.906 127.685 56.142 127.922Z" fill="#1C6859"/>
<path d="M59.2898 146.583C59.0537 146.346 58.975 146.029 58.975 145.713V134.643C58.975 134.248 59.0537 133.931 59.2898 133.694C59.5259 133.457 59.8407 133.378 60.1555 133.378C60.5489 133.378 60.8637 133.457 61.0211 133.694C61.2572 133.931 61.3359 134.248 61.3359 134.643V145.634C61.3359 146.029 61.2572 146.267 61.0211 146.504C60.785 146.741 60.4702 146.899 60.1555 146.899C59.762 146.978 59.5259 146.82 59.2898 146.583ZM59.0537 130.69C58.739 130.373 58.5816 129.978 58.5816 129.503C58.5816 129.029 58.739 128.713 59.0537 128.317C59.3685 128.001 59.762 127.843 60.1555 127.843C60.6276 127.843 60.9424 128.001 61.2572 128.317C61.572 128.634 61.7294 129.029 61.7294 129.503C61.7294 129.978 61.572 130.294 61.2572 130.69C60.9424 131.006 60.5489 131.164 60.1555 131.164C59.6833 131.164 59.3685 131.006 59.0537 130.69Z" fill="#1C6859"/>
<path d="M67.3167 136.462C66.6084 137.094 66.1363 138.043 65.9002 139.15H74.0058C73.8484 138.043 73.4549 137.173 72.8253 136.462C72.1958 135.829 71.2514 135.434 70.2284 135.434C69.048 135.434 68.1036 135.75 67.3167 136.462ZM75.9731 140.732C75.737 140.969 75.501 141.048 75.1862 141.048H65.9002C66.0576 142.234 66.6084 143.104 67.4741 143.815C68.3397 144.527 69.3628 144.843 70.6219 144.843C71.0941 144.843 71.6449 144.764 72.1171 144.606C72.6679 144.448 73.0614 144.211 73.4549 143.973C73.691 143.815 73.9271 143.736 74.2418 143.736C74.5566 143.736 74.7927 143.815 74.9501 143.973C75.2649 144.211 75.4223 144.527 75.4223 144.843C75.4223 145.16 75.2649 145.397 75.0288 145.555C74.4779 146.029 73.7697 146.346 72.9827 146.662C72.1958 146.978 71.4088 147.057 70.6219 147.057C69.2841 147.057 68.1036 146.741 67.0019 146.187C65.9789 145.634 65.1132 144.764 64.5624 143.736C63.9328 142.708 63.6967 141.522 63.6967 140.178C63.6967 138.834 64.0115 137.648 64.5624 136.62C65.1132 135.592 65.9002 134.722 66.9232 134.169C67.9463 133.615 69.048 133.299 70.3071 133.299C71.5662 133.299 72.6679 133.615 73.5336 134.169C74.4779 134.722 75.1075 135.513 75.6583 136.541C76.1305 137.569 76.3666 138.676 76.3666 140.02C76.2879 140.257 76.2092 140.573 75.9731 140.732Z" fill="#1C6859"/>
<path d="M85.1804 144.843C85.4165 145.08 85.4952 145.397 85.4952 145.713C85.4952 146.108 85.3378 146.346 85.1017 146.583C84.8656 146.82 84.4722 146.899 84.0787 146.899H83.6065C82.8196 146.899 82.1113 146.662 81.4031 146.267C80.7735 145.871 80.2226 145.239 79.8292 144.527C79.4357 143.815 79.2783 142.946 79.2783 142.076V135.513H78.1766C77.8618 135.513 77.547 135.434 77.3109 135.197C77.1535 135.038 76.9962 134.801 76.9962 134.485C76.9962 134.169 77.0749 133.852 77.3109 133.694C77.547 133.457 77.7831 133.378 78.1766 133.378H79.2783V128.871C79.2783 128.475 79.357 128.238 79.5931 128.001C79.8292 127.685 80.1439 127.606 80.5374 127.606C80.9309 127.606 81.167 127.685 81.4031 127.922C81.6392 128.159 81.7178 128.475 81.7178 128.792V133.378H83.7639C84.0787 133.378 84.3935 133.457 84.6296 133.694C84.8656 133.931 84.9443 134.169 84.9443 134.485C84.9443 134.801 84.8656 135.038 84.6296 135.197C84.3935 135.434 84.1574 135.513 83.7639 135.513H81.7178V142.155C81.7178 142.787 81.8752 143.341 82.2687 143.815C82.6622 144.29 83.0557 144.448 83.6065 144.448H84.4722C84.7082 144.448 84.9443 144.606 85.1804 144.843Z" fill="#1C6859"/>
<path d="M89.3512 146.187C88.3282 145.555 87.5413 144.764 86.9117 143.736C86.3608 142.708 86.0461 141.522 86.0461 140.257C86.0461 138.913 86.3608 137.727 86.9117 136.699C87.4626 135.671 88.2495 134.801 89.2725 134.248C90.2956 133.694 91.3973 133.378 92.6564 133.378C94.5451 133.378 96.1977 134.09 97.4568 135.592C97.6142 135.75 97.6929 135.987 97.6929 136.224C97.6929 136.62 97.5355 136.857 97.142 137.173C96.9846 137.252 96.8272 137.331 96.5912 137.331C96.1977 137.331 95.8829 137.173 95.6468 136.857C95.2533 136.383 94.7812 136.066 94.309 135.908C93.8368 135.671 93.286 135.592 92.6564 135.592C91.3973 135.592 90.3743 135.987 89.5873 136.857C88.8004 137.727 88.4069 138.834 88.4069 140.257C88.4069 141.127 88.5643 141.918 88.9578 142.629C89.3512 143.341 89.8234 143.894 90.5317 144.29C91.1612 144.685 91.9482 144.922 92.8138 144.922C93.9155 144.922 94.7812 144.606 95.4894 144.053C95.8042 143.815 96.119 143.736 96.3551 143.736C96.5912 143.736 96.8273 143.815 96.9846 143.973C97.2994 144.211 97.4568 144.527 97.4568 144.843C97.4568 145.08 97.3781 145.318 97.142 145.476C95.9616 146.583 94.5451 147.136 92.7351 147.136C91.5547 147.057 90.3743 146.741 89.3512 146.187Z" fill="#1C6859"/>
<path d="M111.701 134.485C111.701 134.643 111.622 134.88 111.543 135.117L104.067 152.118C103.91 152.592 103.516 152.909 103.123 152.909C102.965 152.909 102.729 152.829 102.572 152.75C102.1 152.513 101.864 152.197 101.864 151.802C101.864 151.564 101.942 151.406 102.021 151.169L104.461 145.555L98.952 134.959C98.8733 134.801 98.7946 134.643 98.7946 134.406C98.7946 134.169 98.8733 134.01 98.952 133.773C99.1094 133.615 99.2668 133.457 99.5029 133.378C99.6603 133.299 99.8177 133.299 99.975 133.299C100.447 133.299 100.762 133.536 100.998 134.01L105.484 143.025L109.418 134.01C109.655 133.536 109.969 133.299 110.363 133.299C110.599 133.299 110.756 133.378 110.914 133.457C111.386 133.694 111.701 134.01 111.701 134.485Z" fill="#1C6859"/>
<path d="M121.065 144.211C121.695 143.815 122.246 143.262 122.639 142.55C123.033 141.839 123.19 141.048 123.19 140.178C123.19 139.308 123.033 138.518 122.639 137.806C122.246 137.094 121.774 136.541 121.065 136.145C120.436 135.75 119.649 135.513 118.862 135.513C118.075 135.513 117.288 135.75 116.658 136.145C116.029 136.541 115.478 137.094 115.084 137.806C114.691 138.518 114.534 139.308 114.534 140.178C114.534 141.048 114.691 141.839 115.084 142.55C115.478 143.262 115.95 143.815 116.658 144.211C117.288 144.606 118.075 144.843 118.862 144.843C119.649 144.843 120.436 144.606 121.065 144.211ZM122.324 134.248C123.347 134.88 124.134 135.671 124.764 136.699C125.315 137.727 125.63 138.913 125.63 140.178C125.63 141.443 125.393 142.629 124.843 143.657C124.292 144.685 123.583 145.555 122.56 146.108C121.616 146.741 120.514 146.978 119.413 146.978C118.468 146.978 117.603 146.741 116.816 146.346C116.029 145.95 115.321 145.397 114.77 144.685V151.406C114.77 151.802 114.691 152.118 114.455 152.355C114.219 152.592 113.904 152.671 113.589 152.671C113.196 152.671 112.96 152.592 112.724 152.355C112.488 152.118 112.409 151.802 112.409 151.406V140.178C112.409 138.913 112.724 137.727 113.274 136.699C113.904 135.671 114.691 134.801 115.714 134.248C116.737 133.615 117.839 133.378 119.098 133.378C120.121 133.299 121.223 133.615 122.324 134.248Z" fill="#1C6859"/>
<path d="M137.276 134.01C138.142 134.485 138.85 135.197 139.401 136.145C139.873 137.094 140.188 138.201 140.188 139.545V145.634C140.188 146.029 140.109 146.267 139.873 146.504C139.637 146.741 139.322 146.899 139.008 146.899C138.614 146.899 138.378 146.741 138.142 146.504C137.906 146.267 137.827 145.95 137.827 145.634V139.545C137.827 138.201 137.512 137.173 136.804 136.541C136.096 135.829 135.152 135.513 133.971 135.513C133.263 135.513 132.633 135.671 132.083 135.908C131.532 136.224 131.059 136.541 130.745 137.015C130.43 137.49 130.273 138.043 130.273 138.597V145.555C130.273 145.95 130.194 146.187 129.958 146.425C129.722 146.662 129.407 146.82 129.092 146.82C128.699 146.82 128.463 146.662 128.226 146.425C127.99 146.187 127.912 145.871 127.912 145.555V128.871C127.912 128.475 127.99 128.159 128.226 127.922C128.463 127.685 128.777 127.606 129.092 127.606C129.486 127.606 129.8 127.685 129.958 127.922C130.194 128.159 130.273 128.475 130.273 128.871V134.959C130.823 134.406 131.374 134.01 132.161 133.694C132.869 133.378 133.656 133.299 134.443 133.299C135.309 133.299 136.332 133.536 137.276 134.01Z" fill="#1C6859"/>
<path d="M145.775 136.462C145.067 137.094 144.595 138.043 144.359 139.15H152.543C152.386 138.043 151.992 137.173 151.363 136.462C150.733 135.829 149.789 135.434 148.766 135.434C147.507 135.434 146.562 135.75 145.775 136.462ZM154.432 140.732C154.196 140.969 153.96 141.048 153.645 141.048H144.359C144.516 142.234 145.067 143.104 145.933 143.815C146.798 144.527 147.822 144.843 149.081 144.843C149.553 144.843 150.104 144.764 150.576 144.606C151.127 144.448 151.52 144.211 151.914 143.973C152.15 143.815 152.386 143.736 152.701 143.736C153.015 143.736 153.251 143.815 153.409 143.973C153.724 144.211 153.881 144.527 153.881 144.843C153.881 145.16 153.724 145.397 153.488 145.555C152.937 146.029 152.228 146.346 151.441 146.662C150.655 146.978 149.868 147.057 149.081 147.057C147.743 147.057 146.562 146.741 145.461 146.187C144.438 145.634 143.572 144.764 143.021 143.736C142.392 142.708 142.155 141.522 142.155 140.178C142.155 138.834 142.47 137.648 143.021 136.62C143.572 135.592 144.359 134.722 145.382 134.169C146.405 133.615 147.507 133.299 148.766 133.299C150.025 133.299 151.127 133.615 151.992 134.169C152.937 134.722 153.566 135.513 154.117 136.541C154.589 137.569 154.825 138.676 154.825 140.02C154.747 140.257 154.668 140.573 154.432 140.732Z" fill="#1C6859"/>
<path d="M165.292 133.615C165.764 133.852 166 134.248 166 134.643V134.88C165.843 135.434 165.528 135.671 165.056 135.671C164.977 135.671 164.82 135.671 164.662 135.592C164.033 135.513 163.482 135.434 163.088 135.434C161.908 135.434 160.964 135.671 160.255 136.224C159.547 136.778 159.154 137.49 159.154 138.438V145.713C159.154 146.108 159.075 146.425 158.839 146.662C158.603 146.899 158.367 146.978 157.894 146.978C157.501 146.978 157.186 146.899 157.029 146.662C156.793 146.425 156.714 146.108 156.714 145.713V134.643C156.714 134.248 156.793 133.931 157.029 133.694C157.265 133.457 157.58 133.378 157.894 133.378C158.681 133.378 159.075 133.773 159.075 134.643V135.117C159.547 134.564 160.177 134.09 160.885 133.773C161.593 133.457 162.38 133.299 163.167 133.299C164.111 133.22 164.741 133.378 165.292 133.615Z" fill="#1C6859"/>
<path d="M107.415 82.6152C107.415 77.2006 109.506 71.9943 113.059 68.454L113.268 85.5308C113.268 86.9886 114.523 88.0298 115.777 88.0298C117.24 88.0298 118.285 86.7803 118.285 85.3225L118.076 64.4971C119.958 63.4559 122.048 62.8311 124.139 62.6229L124.557 102.191C114.941 100.942 107.415 92.6114 107.415 82.6152ZM96.3359 96.36L95.9178 79.4914C95.9178 78.0337 94.6636 76.9924 93.4093 76.9924C91.946 76.9924 90.9008 78.2419 90.9008 79.6997L91.3189 100.317C89.4375 101.358 87.3471 101.983 85.0476 102.191C85.0476 101.983 85.0476 101.983 85.0476 101.775L84.6295 68.8705C84.6295 67.4127 83.3753 66.3714 82.121 66.3714C80.6577 66.1632 79.4035 67.4127 79.4035 68.8705L79.6125 101.775V102.399H73.5503L73.3412 62.4146H81.912C87.138 62.4146 92.1551 64.4972 95.9178 68.2457C99.6806 71.9943 101.771 76.9924 101.771 82.407C101.98 87.4051 100.099 92.6114 96.3359 96.36ZM143.998 102.399H129.783L129.365 62.4146H135.427L135.845 96.36C135.845 97.8178 137.099 98.8591 138.353 98.8591C139.817 98.8591 140.862 97.6095 140.862 96.1518L140.653 62.4146H143.58C145.043 62.4146 146.088 61.1651 146.088 59.7073C146.088 58.2495 144.834 57.2083 143.58 57.2083L126.856 57.4165C122.466 57.4165 118.494 58.666 114.941 60.7486C114.523 60.9568 114.314 60.9568 114.105 61.3733C110.133 63.8724 106.997 67.4127 104.907 71.5778C103.652 69.0787 101.98 66.5797 99.8896 64.4971C94.8726 59.4991 88.6013 57 81.912 57H71.2508C71.0418 57 70.8327 57 70.6237 57C70.4146 57 70.2056 57 69.9965 57H64.9795C63.7253 57.2083 62.6801 58.4578 62.6801 59.9156C62.6801 61.3733 63.9343 62.4146 65.1886 62.4146H68.1152L68.5332 102.399H65.6067C64.1434 102.399 63.0981 103.649 63.0981 105.107C63.0981 106.564 64.3524 107.606 65.6067 107.606L82.3301 107.397C89.0194 107.397 95.2907 104.69 99.8896 99.9003C101.771 98.026 103.443 95.7352 104.489 93.2362C108.46 101.566 116.822 107.189 126.438 107.606H127.692L143.789 107.397C145.252 107.397 146.297 106.148 146.297 104.69C146.506 103.441 145.252 102.399 143.998 102.399Z" fill="#1C6859"/>
</svg>
