<svg width="24" height="24" viewBox="0 0 24 24" fill="none" xmlns="http://www.w3.org/2000/svg">
<path d="M12 0C9.62663 0 7.30655 0.703788 5.33316 2.02236C3.35977 3.34094 1.8217 5.21508 0.913451 7.4078C0.00519941 9.60051 -0.232441 12.0133 0.230582 14.3411C0.693605 16.6689 1.83649 18.807 3.51472 20.4853C5.19295 22.1635 7.33115 23.3064 9.65892 23.7694C11.9867 24.2324 14.3995 23.9948 16.5922 23.0865C18.7849 22.1783 20.6591 20.6402 21.9776 18.6668C23.2962 16.6934 24 14.3734 24 12C24 10.4241 23.6896 8.8637 23.0866 7.4078C22.4835 5.95189 21.5996 4.62902 20.4853 3.51472C19.371 2.40041 18.0481 1.5165 16.5922 0.913445C15.1363 0.310389 13.5759 0 12 0ZM12 21.6C10.1013 21.6 8.24524 21.037 6.66653 19.9821C5.08782 18.9272 3.85736 17.4279 3.13076 15.6738C2.40416 13.9196 2.21405 11.9893 2.58447 10.1271C2.95488 8.26491 3.8692 6.55436 5.21178 5.21177C6.55436 3.86919 8.26492 2.95488 10.1271 2.58446C11.9894 2.21404 13.9196 2.40415 15.6738 3.13076C17.4279 3.85736 18.9272 5.08781 19.9821 6.66652C21.037 8.24524 21.6 10.1013 21.6 12C21.6 14.5461 20.5886 16.9879 18.7882 18.7882C16.9879 20.5886 14.5461 21.6 12 21.6Z" fill="currentColor"/>
<path d="M15.252 8.748C15.1404 8.63552 15.0077 8.54625 14.8615 8.48533C14.7153 8.42441 14.5584 8.39304 14.4 8.39304C14.2416 8.39304 14.0847 8.42441 13.9385 8.48533C13.7923 8.54625 13.6596 8.63552 13.548 8.748L12 10.308L10.452 8.748C10.226 8.52203 9.91957 8.39509 9.6 8.39509C9.28044 8.39509 8.97397 8.52203 8.748 8.748C8.52204 8.97396 8.39509 9.28044 8.39509 9.6C8.39509 9.91956 8.52204 10.226 8.748 10.452L10.308 12L8.748 13.548C8.63553 13.6596 8.54626 13.7923 8.48533 13.9385C8.42441 14.0847 8.39305 14.2416 8.39305 14.4C8.39305 14.5584 8.42441 14.7153 8.48533 14.8615C8.54626 15.0077 8.63553 15.1404 8.748 15.252C8.85956 15.3645 8.99228 15.4537 9.13851 15.5147C9.28474 15.5756 9.44159 15.607 9.6 15.607C9.75842 15.607 9.91526 15.5756 10.0615 15.5147C10.2077 15.4537 10.3404 15.3645 10.452 15.252L12 13.692L13.548 15.252C13.6596 15.3645 13.7923 15.4537 13.9385 15.5147C14.0847 15.5756 14.2416 15.607 14.4 15.607C14.5584 15.607 14.7153 15.5756 14.8615 15.5147C15.0077 15.4537 15.1404 15.3645 15.252 15.252C15.3645 15.1404 15.4537 15.0077 15.5147 14.8615C15.5756 14.7153 15.607 14.5584 15.607 14.4C15.607 14.2416 15.5756 14.0847 15.5147 13.9385C15.4537 13.7923 15.3645 13.6596 15.252 13.548L13.692 12L15.252 10.452C15.3645 10.3404 15.4537 10.2077 15.5147 10.0615C15.5756 9.91526 15.607 9.75841 15.607 9.6C15.607 9.44158 15.5756 9.28474 15.5147 9.13851C15.4537 8.99227 15.3645 8.85955 15.252 8.748Z" fill="currentColor"/>
</svg>
