<svg width="51" height="32" viewBox="0 0 51 32" fill="none" xmlns="http://www.w3.org/2000/svg">
<path d="M27.0187 15.7594C27.0187 12.4281 28.2812 9.225 30.4275 7.04688L30.5538 17.5531C30.5538 18.45 31.3113 19.0906 32.0689 19.0906C32.9527 19.0906 33.5839 18.3219 33.5839 17.425L33.4577 4.6125C34.594 3.97187 35.8565 3.5875 37.1191 3.45938L37.3716 27.8031C31.5638 27.0344 27.0187 21.9094 27.0187 15.7594ZM20.3271 24.2156L20.0746 13.8375C20.0746 12.9406 19.3171 12.3 18.5595 12.3C17.6758 12.3 17.0445 13.0687 17.0445 13.9656L17.297 26.65C16.1607 27.2906 14.8981 27.675 13.5093 27.8031C13.5093 27.675 13.5093 27.675 13.5093 27.5469L13.2568 7.30312C13.2568 6.40625 12.4993 5.76562 11.7418 5.76562C10.858 5.6375 10.1004 6.40625 10.1004 7.30312L10.2267 27.5469V27.9312H6.56528L6.43902 3.33125H11.6155C14.7719 3.33125 17.802 4.6125 20.0746 6.91875C22.3472 9.225 23.6098 12.3 23.6098 15.6312C23.736 18.7062 22.5997 21.9094 20.3271 24.2156ZM49.1133 27.9312H40.528L40.2755 3.33125H43.9369L44.1894 24.2156C44.1894 25.1125 44.9469 25.7531 45.7044 25.7531C46.5882 25.7531 47.2195 24.9844 47.2195 24.0875L47.0933 3.33125H48.8608C49.7446 3.33125 50.3759 2.5625 50.3759 1.66562C50.3759 0.76875 49.6184 0.128125 48.8608 0.128125L38.7604 0.25625C36.109 0.25625 33.7102 1.025 31.5638 2.30625C31.3113 2.43437 31.1851 2.43438 31.0588 2.69062C28.66 4.22813 26.7661 6.40625 25.5036 8.96875C24.7461 7.43125 23.736 5.89375 22.4735 4.6125C19.4433 1.5375 15.6557 0 11.6155 0H5.17647C5.05021 0 4.92396 0 4.7977 0C4.67145 0 4.54519 0 4.41894 0H1.38881C0.631277 0.128125 0 0.896875 0 1.79375C0 2.69062 0.757532 3.33125 1.51506 3.33125H3.28264L3.53515 27.9312H1.76758C0.883788 27.9312 0.252511 28.7 0.252511 29.5969C0.252511 30.4938 1.01004 31.1344 1.76758 31.1344L11.868 31.0063C15.9082 31.0063 19.6958 29.3406 22.4735 26.3938C23.6098 25.2406 24.6198 23.8312 25.2511 22.2937C27.6499 27.4187 32.7001 30.8781 38.5079 31.1344H39.2654L48.9871 31.0063C49.8709 31.0063 50.5022 30.2375 50.5022 29.3406C50.6284 28.5719 49.8709 27.9312 49.1133 27.9312Z" fill="#1C6859"/>
</svg>
