<?xml version="1.0" encoding="UTF-8"?>
<svg width="215px" height="210px" viewBox="0 0 215 210" version="1.1" xmlns="http://www.w3.org/2000/svg" xmlns:xlink="http://www.w3.org/1999/xlink">
    <title>dietcode-03-high-protein</title>
    <defs>
        <polygon id="path-1" points="0 0.525259901 21.2026188 0.525259901 21.2026188 16.545953 0 16.545953"></polygon>
        <polygon id="path-3" points="0.496415842 0.942061881 63.4169109 0.942061881 63.4169109 63.8613861 0.496415842 63.8613861"></polygon>
    </defs>
    <g id="Page-1" stroke="none" stroke-width="1" fill="none" fill-rule="evenodd">
        <g id="1.2-DietCodes" transform="translate(-367.000000, -2559.000000)">
            <g id="dietcodes" transform="translate(0.000000, 1488.000000)">
                <g id="Group-4-Copy-3" transform="translate(95.000000, 948.000000)">
                    <g id="dietcode-03-high-protein" transform="translate(272.000000, 123.000000)">
                        <path d="M201.623807,84.8901955 C228.068807,125.52626 213.374302,181.456062 168.768188,195.346978 C122.478262,209.762621 73.7530891,210.286285 47.3080891,169.651285 C20.8630891,129.01522 32.3687822,74.6361856 73.0037822,48.19225 C113.639847,21.74725 175.179871,44.2541312 201.623807,84.8901955" id="Fill-1" fill="#EBF5F7"></path>
                        <g id="Group-5" transform="translate(0.000000, 112.502475)">
                            <mask id="mask-2" fill="white">
                                <use xlink:href="#path-1"></use>
                            </mask>
                            <g id="Clip-4"></g>
                            <polygon id="Fill-3" fill="#0A8366" mask="url(#mask-2)" points="20.9482376 16.545953 -0.000425742574 16.2064233 0.0645 12.2555322 8.7134604 12.3960272 8.83905446 4.61558168 0.191158416 4.47508663 0.255019802 0.525259901 21.2026188 0.86585396 21.1387574 4.81568069 12.4301931 4.67412129 12.3035347 12.4545668 21.0131634 12.5950619"></polygon>
                        </g>
                        <polygon id="Fill-6" fill="#0A8366" points="21.9658688 107.991094 1.26413614 104.776738 1.86975495 100.873743 22.5714876 104.087035"></polygon>
                        <path d="M25.9550767,91.9259109 C25.5208193,93.2946733 24.8183441,94.4377921 23.847651,95.354203 C22.8748292,96.2706139 21.6912649,96.8687822 20.2948292,97.1465792 C18.8983936,97.426505 17.3433688,97.2934604 15.6318837,96.7506386 L10.8390866,95.2296733 C8.27185891,94.4143762 6.52844307,93.0647723 5.60883911,91.1829901 C4.68923515,89.2990792 4.62111634,87.1214059 5.40554703,84.6489059 C6.18465594,82.1955644 7.43846782,80.5064307 9.16591832,79.5783119 C10.8944332,78.6512574 12.8709431,78.5405644 15.0965124,79.247297 L15.2093342,79.2834851 L14.0332203,82.991703 L13.8043837,82.9193267 C13.1019084,82.6958119 12.4164629,82.6404653 11.7533688,82.7554158 C11.0892104,82.8682376 10.4974282,83.1673218 9.97695792,83.651604 C9.45755198,84.1358861 9.05522525,84.8234604 8.77104208,85.7175198 C8.34849257,87.0490297 8.42619059,88.2251436 9.00200743,89.244797 C9.57782426,90.2655149 10.5708688,90.9988564 11.977948,91.4458861 L16.8846312,93.0030396 C18.272552,93.4436832 19.5103985,93.4181386 20.5981708,92.9253416 C21.6859431,92.4346733 22.4469579,91.5033614 22.8812153,90.1335347 C23.3165371,88.7637079 23.2718342,87.6514554 22.7481708,86.7946485 C22.2255718,85.9378416 21.4113391,85.3343515 20.3086658,84.9841782 L20.0234183,84.8937079 L18.520547,89.6290297 L15.325349,88.614698 L18.0053985,80.1700941 L28.2178985,83.4121238 L27.1130965,86.8925693 L25.2025767,86.2858861 L25.0397302,86.7999703 C25.3196559,87.0351931 25.5942599,87.3576931 25.8624777,87.7674703 C26.1306955,88.1772475 26.2935421,88.7158119 26.3542104,89.3831634 C26.4148787,90.0515792 26.2818342,90.8988069 25.9550767,91.9259109" id="Fill-8" fill="#0A8366"></path>
                        <polygon id="Fill-10" fill="#0A8366" points="30.2499678 78.8428416 12.0324431 68.4951683 13.9844728 65.0604901 21.504151 69.3317525 25.3486064 62.5656386 17.8267995 58.2933119 19.7777649 54.8586337 37.9942252 65.2052426 36.0432599 68.6409851 28.4703639 64.3399208 24.6280371 71.1049703 32.2009332 75.407099"></polygon>
                        <polygon id="Fill-12" fill="#0A8366" points="34.4201163 55.2721361 31.7911559 53.0965916 37.4407599 46.2719381 40.0686559 48.448547"></polygon>
                        <path d="M46.2288317,38.9918465 L49.4687327,36.1947178 C50.1786584,35.5827129 50.5831139,34.8908812 50.6831634,34.1202871 C50.7810842,33.3496931 50.5384109,32.6248663 49.9508861,31.9447426 L49.7550446,31.7180347 C49.1696485,31.0379109 48.487396,30.6909307 47.7104158,30.6760297 C46.9334356,30.6621931 46.1894505,30.9602129 45.4795248,31.5722178 L42.2396238,34.3693465 L46.2288317,38.9918465 Z M50.5905644,50.0920198 L36.9018762,34.2309802 L43.4274455,28.5994703 C44.4247475,27.7394703 45.477396,27.1806832 46.5853911,26.9220446 C47.6944505,26.6644703 48.776901,26.7123663 49.8327426,27.0657327 C50.8885842,27.419099 51.846505,28.0949653 52.7075693,29.091203 L52.9811089,29.4083812 C53.829401,30.3907822 54.3456139,31.4402376 54.5318762,32.5567475 C54.719203,33.6743218 54.6031881,34.7620941 54.1859604,35.8211287 C53.7687327,36.8801634 53.076901,37.8253119 52.109401,38.6597673 L48.5746733,41.7112772 L53.5803416,47.5109554 L50.5905644,50.0920198 Z" id="Fill-14" fill="#0A8366"></path>
                        <path d="M63.3239926,25.8547079 L67.4366658,23.5237673 C68.2530272,23.0607723 68.7649827,22.477505 68.9746609,21.7739653 C69.1832748,21.0704257 69.0810965,20.3541139 68.6681262,19.6250297 L68.5201807,19.3642624 C68.1072104,18.6362426 67.5494876,18.1785693 66.8470124,17.9912426 C66.1445371,17.8049802 65.3771361,17.947604 64.543745,18.4201782 L60.4300074,20.7521832 L63.3239926,25.8547079 Z M65.555948,37.8021089 L55.2221114,19.5771337 L63.1366658,15.0898069 C64.2819134,14.4394851 65.3931015,14.0733465 66.4702302,13.9903267 C67.5473589,13.9073069 68.5276312,14.0967624 69.4089183,14.5608218 C70.2912698,15.0238168 71.0129035,15.7507723 71.572755,16.7395594 L71.7505025,17.0514158 C72.3699579,18.1455743 72.6126312,19.1790644 72.4753292,20.1508218 C72.3380272,21.1225792 71.976146,21.9815149 71.3896856,22.7276287 L71.6557748,23.1948812 C72.3688936,22.8372574 73.0426312,22.770203 73.6759233,22.9958465 C74.308151,23.2214901 74.8318144,23.7004505 75.2447847,24.4284703 L78.6251807,30.390995 L75.1883738,32.3398317 L72.0879035,26.8722327 C71.8526807,26.455005 71.5514678,26.1793366 71.1874579,26.0409703 C70.8223837,25.9036683 70.3891906,25.9771089 69.88575,26.2634208 L65.0950817,28.9796584 L68.992755,35.8532723 L65.555948,37.8021089 Z" id="Fill-16" fill="#0A8366"></path>
                        <path d="M90.0628614,22.8612054 C91.4688762,22.412047 92.4321188,21.6552896 92.9515248,20.5888045 C93.4698663,19.5233837 93.5113762,18.3068243 93.0749901,16.9380619 L91.4752624,11.9185569 C91.0399406,10.5508589 90.3012772,9.5812302 89.261401,9.0117995 C88.2215248,8.44343317 86.9975149,8.3817005 85.5915,8.83085891 C84.2035792,9.27256683 83.2456584,10.0282599 82.7177376,11.0968738 C82.1887525,12.166552 82.1429851,13.3852401 82.5793713,14.7540025 L84.1780347,19.7735074 C84.6144208,21.1422698 85.3573416,22.1097698 86.4057327,22.6749431 C87.4562525,23.2411807 88.6738762,23.3029134 90.0628614,22.8612054 M91.1346683,26.2256361 C88.6249158,27.0249678 86.4089257,26.9728144 84.4877624,26.067047 C82.5655347,25.1612797 81.1957079,23.42425 80.3772178,20.8580866 L78.8509307,16.0674183 C78.0324406,13.501255 78.1463267,11.2927153 79.189396,9.4417995 C80.2335297,7.59088366 82.0099406,6.2657599 84.5186287,5.46536386 C87.0283812,4.66603218 89.2433069,4.71925 91.1655347,5.62501733 C93.0888267,6.53078465 94.4586535,8.26675 95.2760792,10.8329134 L96.8023663,15.6235817 C97.6208564,18.189745 97.5080347,20.399349 96.4649653,22.2502649 C95.4208317,24.1011807 93.6444208,25.4252401 91.1346683,26.2256361" id="Fill-18" fill="#0A8366"></path>
                        <polygon id="Fill-20" fill="#0A8366" points="107.930319 21.9954579 105.937844 4.75181931 99.8731411 5.45216584 99.4601708 1.88444307 115.514923 0.029269802 115.927894 3.59805693 109.862126 4.29840347 111.854601 21.5420421"></polygon>
                        <polygon id="Fill-22" fill="#0A8366" points="121.980037 20.9051312 123.3637 0.000106435644 136.802265 0.889908416 136.564913 4.47359653 127.067661 3.84562624 126.738775 8.83213614 135.398379 9.40582426 135.162092 12.9895124 126.501423 12.4158243 126.159765 17.5832748 135.835829 18.222953 135.598478 21.8066411"></polygon>
                        <polygon id="Fill-24" fill="#0A8366" points="140.013854 22.7749926 144.2468 2.25632921 148.114671 3.05459653 143.883854 23.5732599"></polygon>
                        <polygon id="Fill-26" fill="#0A8366" points="149.20223 24.6168614 156.542032 4.99332178 163.578493 7.62547525 161.078319 26.1835941 161.582824 26.3709208 167.979606 9.27203465 171.622899 10.6344109 164.284161 30.2579505 157.2477 27.625797 159.746809 9.06874257 159.242304 8.88035149 152.846587 25.9792376"></polygon>
                        <g id="Group-30" transform="translate(31.930693, 145.497525)">
                            <mask id="mask-4" fill="white">
                                <use xlink:href="#path-3"></use>
                            </mask>
                            <g id="Clip-29"></g>
                            <path d="M49.2992871,15.0586213 C49.3046089,15.0490421 49.310995,15.0405272 49.3163168,15.0320124 C44.4436931,6.6097599 35.3370594,0.942061881 24.9074307,0.942061881 C14.4756733,0.942061881 5.37010396,6.6097599 0.496415842,15.0330767 C5.37010396,23.4553292 14.4756733,29.1219629 24.9063663,29.1219629 C30.0557228,29.1219629 34.8804505,27.7361708 39.0346337,25.3243391 C36.6217376,29.4774579 35.2359455,34.3021856 35.2359455,39.4515421 C35.2359455,49.8832995 40.9036436,58.9878045 49.325896,63.8614926 C57.7492129,58.9888688 63.4169109,49.8822351 63.4169109,39.4515421 C63.4169109,29.020849 57.7492129,19.9142153 49.325896,15.0415916 C49.3173812,15.0469134 49.3088663,15.0532995 49.2992871,15.0586213" id="Fill-28" fill="#005551" mask="url(#mask-4)"></path>
                        </g>
                        <path d="M90.2078267,87.2568985 C93.3519356,82.7387054 96.9313663,78.4323193 100.96102,74.4037302 C104.821441,70.5433094 108.935178,67.0905371 113.246886,64.0422203 C109.960153,62.6990025 106.366886,61.9486312 102.595871,61.9486312 C92.1651782,61.9486312 83.0596089,67.6163292 78.1869851,76.0385817 C80.9819851,80.8707599 85.1744851,84.7886559 90.2078267,87.2568985" id="Fill-31" fill="#005551"></path>
                        <path d="M179.837814,139.190042 C179.837814,149.620735 174.170116,158.726304 165.747864,163.599993 C157.324547,158.726304 151.656849,149.620735 151.656849,139.190042 C151.656849,128.759349 157.324547,119.65378 165.747864,114.780092 C174.170116,119.65378 179.837814,128.759349 179.837814,139.190042" id="Fill-33" fill="#005551"></path>
                        <path d="M103.628723,79.4404777 C82.8833515,100.184785 73.8714455,128.218869 76.5908762,155.298225 C77.5232525,164.588993 84.9024356,171.968176 94.1921386,172.900552 C121.271495,175.618918 149.305579,166.607012 170.05095,145.861641 C190.795257,125.11627 199.807163,97.0821856 197.088797,70.0038936 C196.156421,60.7131262 188.777238,53.3350074 179.48647,52.4026312 C152.408178,49.6832005 124.374094,58.6951064 103.628723,79.4404777" id="Fill-35" fill="#FD922D"></path>
                        <path d="M100.96102,74.4035173 C80.2156485,95.1488886 71.2037426,123.182973 73.9231733,150.261265 C74.8555495,159.552032 82.2336683,166.931215 91.5244356,167.864656 C118.603792,170.581958 146.637876,161.570052 167.383248,140.825745 C188.127554,120.080374 197.13946,92.0462896 194.421094,64.9679975 C193.488718,55.6761658 186.109535,48.2991114 176.818767,47.3656708 C149.740475,44.6462401 121.706391,53.658146 100.96102,74.4035173 Z" id="Stroke-37" stroke="#005551" stroke-width="3"></path>
                        <path d="M135.215842,52.5562178 C136.367475,66.003297 142.076683,79.1310693 152.365817,89.420203 C162.65495,99.710401 175.783787,105.419609 189.229802,106.571243 C194.089653,93.2050545 195.825619,78.9607723 194.420668,64.9666139 C193.488292,55.6769109 186.110173,48.2987921 176.819406,47.3653515 C162.826312,45.960401 148.580965,47.6974307 135.215842,52.5562178" id="Fill-39" fill="#005551"></path>
                        <path d="M135.215842,52.5562178 C136.367475,66.003297 142.076683,79.1310693 152.365817,89.420203 C162.65495,99.710401 175.783787,105.419609 189.229802,106.571243 C194.089653,93.2050545 195.825619,78.9607723 194.420668,64.9666139 C193.488292,55.6769109 186.110173,48.2987921 176.819406,47.3653515 C162.826312,45.960401 148.580965,47.6974307 135.215842,52.5562178 Z" id="Stroke-41" stroke="#005551" stroke-width="3"></path>
                        <path d="M173.423045,68.3635074 C175.004678,69.9440767 175.004678,72.5091757 173.423045,74.089745 C171.842475,75.6703144 169.278441,75.6703144 167.696807,74.089745 C166.116238,72.5091757 166.116238,69.9440767 167.696807,68.3635074 C169.278441,66.7829381 171.842475,66.7829381 173.423045,68.3635074" id="Fill-43" fill="#EBF5F7"></path>
                    </g>
                </g>
            </g>
        </g>
    </g>
</svg>