<?xml version="1.0" encoding="UTF-8"?>
<svg width="215px" height="226px" viewBox="0 0 215 226" version="1.1" xmlns="http://www.w3.org/2000/svg" xmlns:xlink="http://www.w3.org/1999/xlink">
    <title>dietcode-05-high-carb</title>
    <g id="Page-1" stroke="none" stroke-width="1" fill="none" fill-rule="evenodd">
        <g id="1.2-DietCodes" transform="translate(-363.000000, -3248.000000)">
            <g id="dietcodes" transform="translate(0.000000, 1488.000000)">
                <g id="Group-4-Copy-5" transform="translate(95.000000, 1670.000000)">
                    <g id="dietcode-05-high-carb" transform="translate(268.000000, 90.000000)">
                        <path d="M214.170523,107.374788 C214.170523,158.119244 142.295912,216.795306 85.635057,208.285539 C35.4542798,200.748285 27.3032176,143.625124 44.458658,95.8695026 C62.7470259,44.9601762 109.346326,25.5890104 158.898813,36.5194767 C210.45871,47.8910829 214.170523,87.5836477 214.170523,107.374788" id="Fill-1" fill="#EBF5F7"></path>
                        <polygon id="Fill-3" fill="#008764" points="21.3888238 111.984142 0.000222797927 107.151655 0.911466321 103.120127 9.74206218 105.113054 11.5355855 97.1691943 2.70610363 95.1740389 3.61734715 91.1425104 25.0048342 95.9727694 24.0947047 100.006526 15.2028394 97.9980026 13.4082021 105.941863 22.2989534 107.950386"></polygon>
                        <polygon id="Fill-5" fill="#008764" points="27.1208575 90.6898964 6.71590933 82.6613731 8.22982124 78.8147668 28.6336554 86.8432902"></polygon>
                        <path d="M34.8795725,75.2006503 C34.1220596,76.4995622 33.1428627,77.5043808 31.9408679,78.2184482 C30.739987,78.9325155 29.3931736,79.2711684 27.9026554,79.2366347 C26.4132513,79.202101 24.8558938,78.7097176 23.2328109,77.7639404 L18.6866192,75.1137591 C16.2503238,73.6923083 14.7787435,71.9154948 14.2696503,69.7810907 C13.761671,67.6489145 14.191671,65.4097953 15.5585363,63.0637332 C16.9153756,60.7366088 18.5830181,59.2984482 20.5603497,58.7459093 C22.5376813,58.1944845 24.5818523,58.5342513 26.6917487,59.7663238 L26.8009197,59.8287073 L24.7489508,63.3444585 L24.5328368,63.2185777 C23.865557,62.8309093 23.1793394,62.6181373 22.4752979,62.5813756 C21.7701425,62.546842 21.0984067,62.7161684 20.4567487,63.0904689 C19.8150907,63.4669974 19.245842,64.0785777 18.7512306,64.9240959 C18.0148834,66.1884741 17.8243912,67.4071788 18.1797539,68.5802098 C18.5351166,69.7543549 19.3795207,70.7313238 20.7140803,71.5088886 L25.369443,74.2236813 C26.6872927,74.9923342 27.9561269,75.2485518 29.1804016,74.9934482 C30.4024482,74.7416865 31.393899,73.9652358 32.1514119,72.6663238 C32.9078109,71.3674119 33.1183549,70.2200026 32.7797021,69.2263238 C32.4421632,68.2293031 31.7481477,67.4261166 30.7021114,66.8178782 L30.4325259,66.6585777 L27.8124223,71.1512979 L24.7823705,69.3845104 L29.452215,61.3738109 L39.1394689,67.0239663 L37.2156088,70.3247176 L35.4020337,69.2675415 L35.1179663,69.7543549 C35.3519041,70.0595881 35.5568782,70.4528264 35.7373446,70.931842 C35.9178109,71.4108575 35.9612565,71.9979301 35.8699093,72.6941736 C35.7774482,73.3904171 35.4488212,74.2259093 34.8795725,75.2006503" id="Fill-7" fill="#008764"></path>
                        <polygon id="Fill-9" fill="#008764" points="42.2663264 62.805399 26.0065337 48.0951658 28.7814819 45.0272383 35.4943834 51.1018238 40.9573886 45.061772 34.245601 38.9894145 37.0194352 35.921487 53.279228 50.6339482 50.5053938 53.6996477 43.7457047 47.5838446 38.2815855 53.6238964 45.0401606 59.7396995"></polygon>
                        <polygon id="Fill-11" fill="#008764" points="51.8929793 39.6574741 49.7006477 36.8379663 57.0217876 31.1454793 59.2130052 33.966101"></polygon>
                        <path d="M77.074158,34.5161891 C74.6757383,35.7894793 72.4199093,36.1259041 70.310013,35.5321477 C68.1978886,34.9383912 66.4823446,33.3955155 65.1622668,30.9046347 L62.6981218,26.254842 C61.3769301,23.7639611 61.063899,21.4769404 61.7568005,19.3971218 C62.4497021,17.3173031 63.9959197,15.6396347 66.3943394,14.3685725 C68.7749352,13.1064223 70.9605829,12.7800233 72.9501684,13.3916036 C74.9408679,14.0031839 76.538329,15.4435725 77.7403238,17.7127694 L77.828329,17.8798679 L74.2301425,19.7859041 L74.0830959,19.5096347 C73.4770855,18.3655674 72.6605311,17.5935725 71.6323187,17.1925363 C70.6041062,16.792614 69.4355311,16.9407746 68.1254793,17.6347902 C66.8343653,18.3176658 66.0289508,19.2534171 65.7125777,20.4364741 C65.3950907,21.6228731 65.5978368,22.8972772 66.3219301,24.2619145 L68.8440026,29.0219922 C69.5591839,30.3688057 70.4971632,31.2499715 71.6612824,31.6610337 C72.8242876,32.0732098 74.0519041,31.9361891 75.3430181,31.2499715 C76.6530699,30.555956 77.4284067,29.6658782 77.6690285,28.5830803 C77.9096503,27.4969404 77.7314119,26.3918627 77.1354275,25.2667332 L76.8702979,24.7687798 L80.4695984,22.8605155 L80.6734585,23.2504119 C81.8776813,25.5196088 82.1728886,27.649557 81.5613083,29.6380285 C80.949728,31.628728 79.4547539,33.2540389 77.074158,34.5161891" id="Fill-13" fill="#008764"></path>
                        <path d="M90.7835829,18.8876943 L96.4326244,17.2256218 L90.8649041,7.72774611 L90.3246192,7.88704663 L90.7835829,18.8876943 Z M87.0617435,28.9938083 L86.4044896,6.3319171 L93.3167953,4.29665803 L105.033738,23.7068135 L100.94651,24.9099223 L98.4433756,20.6177202 L90.9306295,22.8278756 L91.1489715,27.7906995 L87.0617435,28.9938083 Z" id="Fill-15" fill="#008764"></path>
                        <path d="M112.063681,10.8003523 L116.995313,10.3826062 C117.973396,10.300171 118.715313,9.96931606 119.222179,9.39004145 C119.72793,8.81410881 119.944044,8.08890155 119.870521,7.21441969 L119.843785,6.9013886 C119.770262,6.02913472 119.439407,5.34960104 118.853448,4.86501554 C118.266376,4.37931606 117.474329,4.17991192 116.476194,4.26457513 L111.544562,4.68232124 L112.063681,10.8003523 Z M108.96122,23.1344456 L107.107541,1.28799482 L116.595391,0.482580311 C117.96894,0.365611399 119.186531,0.502632124 120.245935,0.893642487 C121.306453,1.28799482 122.154199,1.89734715 122.790288,2.72169948 C123.426376,3.54827979 123.793992,4.55644041 123.895365,5.74172539 L123.926557,6.11602591 C124.037956,7.42607772 123.816272,8.51333161 123.260391,9.38001554 C122.705624,10.2433575 121.984873,10.9028394 121.101479,11.3528912 L121.149381,11.9165699 C121.984873,11.8887202 122.654381,12.1193161 123.157904,12.6105855 C123.660313,13.1018549 123.948837,13.7858446 124.02236,14.6580984 L124.629484,21.805456 L120.508837,22.1552487 L119.952956,15.6027617 C119.910624,15.1014663 119.745754,14.708228 119.460573,14.4163627 C119.173163,14.1267254 118.727567,14.0075285 118.123785,14.059886 L112.381168,14.5466995 L113.080754,22.7868808 L108.96122,23.1344456 Z" id="Fill-17" fill="#008764"></path>
                        <path d="M137.892088,9.78639896 L141.686337,10.2364508 C142.536311,10.3367098 143.262632,10.2019171 143.863073,9.83207254 C144.464627,9.46222798 144.811078,8.89409326 144.902425,8.1265544 L144.939187,7.81463731 C145.032762,7.02704663 144.834472,6.38761658 144.346544,5.89857513 C143.856389,5.41064767 143.177969,5.11321244 142.306829,5.01072539 L138.51258,4.56067358 L137.892088,9.78639896 Z M136.813746,18.8676425 L140.670378,19.3266062 C141.562684,19.4313212 142.309057,19.3009845 142.910611,18.9311399 C143.511052,18.5590674 143.859731,17.9697668 143.955534,17.1621244 L143.993409,16.8513212 C144.088098,16.0414508 143.89315,15.3864249 143.405223,14.8884715 C142.918409,14.3882902 142.218824,14.085285 141.305352,13.977228 L137.44872,13.5182642 L136.813746,18.8676425 Z M129.402373,21.7751554 L129.831259,18.164715 L132.693098,18.5067098 L134.420896,3.94909326 L131.557943,3.60932642 L131.986829,0 L143.185767,1.32898964 C144.512528,1.48606218 145.642114,1.84699482 146.574523,2.41067358 C147.506933,2.97212435 148.19872,3.69621762 148.651,4.5796114 C149.102166,5.46523316 149.261466,6.47673575 149.126674,7.61746114 L149.089912,7.92826425 C148.970715,8.92528497 148.687762,9.71733161 148.239938,10.3044041 C147.792114,10.8937047 147.291933,11.3270466 146.74385,11.61 C146.194653,11.8907254 145.684446,12.0778756 145.211,12.1692228 L145.145275,12.7284456 C145.585301,12.9066839 146.055404,13.1996632 146.554472,13.6051554 C147.053539,14.0117617 147.455689,14.5598446 147.76315,15.2471762 C148.070611,15.9356218 148.163073,16.7989637 148.03942,17.8349741 L148.002658,18.1457772 C147.860067,19.348886 147.457917,20.3470207 146.795093,21.1412953 C146.133383,21.9355699 145.283409,22.5037047 144.244057,22.8434715 C143.204705,23.1821244 142.031674,23.2734715 140.724964,23.1197409 L129.402373,21.7751554 Z" id="Fill-19" fill="#008764"></path>
                        <path d="M94.388899,73.6896347 L99.3227591,77.1307487 C105.162293,81.2034948 113.1975,79.7709041 117.270246,73.9313705 L129.701256,56.1064223 L126.993148,54.2182098 C119.923769,49.2876917 110.197526,51.0210596 105.268122,58.0904378 L94.388899,73.6896347 Z" id="Fill-21" fill="#FFC666"></path>
                        <path d="M125.403262,95.3188575 L120.469402,91.8777435 C114.629868,87.8061114 113.197277,79.7709041 117.270023,73.9313705 L129.701034,56.1064223 L132.410256,57.9946347 C139.478521,62.9251528 141.211889,72.6502824 136.282484,79.7196606 L125.403262,95.3188575 Z" id="Fill-23" fill="#FFC666"></path>
                        <path d="M134.286326,101.514311 L139.220187,104.955425 C145.05972,109.027057 153.094927,107.594466 157.167674,101.756047 L169.598684,83.9310984 L166.890575,82.041772 C159.821197,77.1123679 150.094953,78.8457358 145.165549,85.914 L134.286326,101.514311 Z" id="Fill-25" fill="#FFC666"></path>
                        <path d="M165.300689,123.143534 L160.366829,119.70242 C154.527295,115.629674 153.094705,107.594466 157.167451,101.756047 L169.598461,83.9310984 L172.30657,85.8193109 C179.374834,90.748715 181.109316,100.474959 176.179912,107.544337 L165.300689,123.143534 Z" id="Fill-27" fill="#FFC666"></path>
                        <path d="M43.5952047,146.522166 L48.5290648,149.96328 C54.3685984,154.036026 62.4038057,152.603435 66.4765518,146.763902 L78.9075622,128.938953 L76.1994534,127.050741 C69.1300751,122.120223 59.4038316,123.853591 54.4744275,130.922969 L43.5952047,146.522166 Z" id="Fill-29" fill="#FFC666"></path>
                        <path d="M74.6095674,168.151389 L69.6757073,164.710275 C63.8361736,160.638642 62.4035829,152.603435 66.476329,146.763902 L78.9073394,128.938953 L81.6165622,130.827166 C88.6848264,135.757684 90.4181943,145.483927 85.4887902,152.552192 L74.6095674,168.151389 Z" id="Fill-31" fill="#FFC666"></path>
                        <path d="M83.4926321,174.346842 L88.4264922,177.787956 C94.2660259,181.859588 102.301233,180.428111 106.373979,174.588578 L118.80499,156.76363 L116.096881,154.875417 C109.027503,149.944899 99.3012591,151.678267 94.3718549,158.747645 L83.4926321,174.346842 Z" id="Fill-33" fill="#FFC666"></path>
                        <path d="M114.506995,195.976065 L109.573135,192.534951 C103.733601,188.463319 102.30101,180.428111 106.373756,174.588578 L118.804767,156.76363 L121.512876,158.651842 C128.58114,163.581246 130.315622,173.30749 125.386218,180.376868 L114.506995,195.976065 Z" id="Fill-35" fill="#FFC666"></path>
                        <path d="M129.038433,47.2639067 C142.030894,36.6598394 161.52794,35.7931554 176.62807,46.3236995 C194.69364,58.9229223 199.624158,83.0664197 187.639858,100.248596 L101.148588,224.270176" id="Stroke-37" stroke="#005551" stroke-width="3"></path>
                        <path d="M169.008715,74.9830881 C174.270088,67.4391503 183.400347,64.1952124 191.856642,66.065601" id="Stroke-39" stroke="#005551" stroke-width="3"></path>
                        <path d="M93.7998212,64.7418472 L98.7336813,68.1829611 C104.573215,72.2545933 112.608422,70.8231166 116.681168,64.9835829 L129.112179,47.1586347 L126.40407,45.2704223 C119.334692,40.3399041 109.608448,42.073272 104.679044,49.1426503 L93.7998212,64.7418472 Z" id="Stroke-41" stroke="#005551" stroke-width="3"></path>
                        <path d="M124.814184,86.3710699 L119.880324,82.929956 C114.04079,78.8583238 112.608199,70.8231166 116.680946,64.9835829 L129.111956,47.1586347 L131.820065,49.0468472 C138.888329,53.9773653 140.622811,63.7024948 135.693407,70.7718731 L124.814184,86.3710699 Z" id="Stroke-43" stroke="#005551" stroke-width="3"></path>
                        <path d="M133.696692,92.5665233 L138.630552,96.0076373 C144.470085,100.079269 152.505293,98.6466788 156.578039,92.8082591 L169.009049,74.9833109 L166.30094,73.0939845 C159.231562,68.1645803 149.505319,69.8979482 144.575915,76.9662124 L133.696692,92.5665233 Z" id="Stroke-45" stroke="#005551" stroke-width="3"></path>
                        <path d="M164.711054,114.195746 L159.777194,110.754632 C153.937661,106.681886 152.50507,98.6466788 156.577816,92.8082591 L169.008826,74.9833109 L171.718049,76.8715233 C178.786313,81.8009275 180.519681,91.527171 175.590277,98.5965492 L164.711054,114.195746 Z" id="Stroke-47" stroke="#005551" stroke-width="3"></path>
                        <path d="M78.2447383,120.096438 C91.2371995,109.49237 110.734246,108.625687 125.834376,119.156231 C143.899946,131.755453 148.830464,155.898951 136.846163,173.081127" id="Stroke-49" stroke="#005551" stroke-width="3"></path>
                        <path d="M118.215578,147.815619 C123.476951,140.271681 132.60721,137.027744 141.062391,138.898132" id="Stroke-51" stroke="#005551" stroke-width="3"></path>
                        <path d="M43.0061269,137.574267 L47.939987,141.015381 C53.7795207,145.088127 61.814728,143.655536 65.8874741,137.816003 L78.3184845,119.991054 L75.6103756,118.102842 C68.5409974,113.172324 58.8147539,114.905692 53.8853497,121.97507 L43.0061269,137.574267 Z" id="Stroke-53" stroke="#005551" stroke-width="3"></path>
                        <path d="M74.0204896,159.203601 L69.0866295,155.762487 C63.2470959,151.690855 61.8145052,143.655648 65.8872513,137.816114 L78.3182617,119.991166 L81.0263705,121.879378 C88.0957487,126.809896 89.8291166,136.53614 84.8997124,143.604404 L74.0204896,159.203601 Z" id="Stroke-55" stroke="#005551" stroke-width="3"></path>
                        <path d="M82.9029974,165.399054 L87.8368575,168.840168 C93.6763912,172.911801 101.711598,171.480324 105.784345,165.64079 L118.215355,147.815842 L115.507246,145.926516 C108.437868,140.997111 98.7116244,142.730479 93.7822202,149.799858 L82.9029974,165.399054 Z" id="Stroke-57" stroke="#005551" stroke-width="3"></path>
                        <path d="M113.91736,187.028277 L108.9835,183.587163 C103.143966,179.515531 101.711376,171.480324 105.784122,165.64079 L118.215132,147.815842 L120.924355,149.704054 C127.992619,154.633459 129.725987,164.359702 124.796583,171.42908 L113.91736,187.028277 Z" id="Stroke-59" stroke="#005551" stroke-width="3"></path>
                    </g>
                </g>
            </g>
        </g>
    </g>
</svg>