<?xml version="1.0" encoding="UTF-8"?>
<svg width="216px" height="193px" viewBox="0 0 216 193" version="1.1" xmlns="http://www.w3.org/2000/svg" xmlns:xlink="http://www.w3.org/1999/xlink">
    <title>dietcode-04-moderate-protein</title>
    <defs>
        <polygon id="path-1" points="0 0.867679993 20.4738348 0.867679993 20.4738348 17.2413487 0 17.2413487"></polygon>
        <polygon id="path-3" points="0.5175 0.0772 25.226 0.0772 25.226 23.3372 0.5175 23.3372"></polygon>
    </defs>
    <g id="Page-1" stroke="none" stroke-width="1" fill="none" fill-rule="evenodd">
        <g id="1.2-DietCodes" transform="translate(-968.000000, -2602.000000)">
            <g id="dietcodes" transform="translate(0.000000, 1488.000000)">
                <g id="dietcode-04-moderate-protein" transform="translate(968.000000, 1114.000405)">
                    <path d="M152.4823,34.8203953 C192.0863,52.0853953 209.4673,99.8553953 192.2033,139.459395 C174.9393,179.062395 126.7773,201.174395 85.4443,188.601395 C36.0043,173.565395 33.8163,127.889395 51.0813,88.2863953 C68.3463,48.6823953 112.8783,17.5563953 152.4823,34.8203953" id="Fill-1" fill="#EBF5F7"></path>
                    <polygon id="Fill-3" fill="#0A8366" points="24.1112 143.564595 4.8362 147.555595 3.4392 140.809595 19.5462 134.000595 19.4432 133.503595 1.9572 133.650595 0.5592 126.904595 19.8342 122.913595 20.5642 126.437595 3.9612 129.876595 4.0632 130.371595 21.3512 130.237595 22.5932 136.240595 6.6742 142.982595 6.7772 143.478595 23.3812 140.040595"></polygon>
                    <g id="Group-7" transform="translate(0.000000, 101.129595)">
                        <mask id="mask-2" fill="white">
                            <use xlink:href="#path-1"></use>
                        </mask>
                        <g id="Clip-6"></g>
                        <path d="M17.1503,9.3031 C17.2003,7.9171 16.8363,6.8251 16.0573,6.0281 C15.2803,5.2311 14.2163,4.8081 12.8683,4.7591 L7.9213,4.5811 C6.5733,4.5321 5.4823,4.8781 4.6493,5.6171 C3.8163,6.3571 3.3743,7.4191 3.3243,8.8051 C3.2753,10.1731 3.6393,11.2601 4.4173,12.0671 C5.1943,12.8731 6.2573,13.3001 7.6063,13.3491 L12.5513,13.5271 C13.9013,13.5751 14.9923,13.2261 15.8263,12.4771 C16.6593,11.7291 17.1003,10.6711 17.1503,9.3031 M20.4653,9.4221 C20.3773,11.8961 19.6273,13.8381 18.2153,15.2501 C16.8053,16.6621 14.8353,17.3241 12.3063,17.2331 L7.5853,17.0621 C5.0553,16.9711 3.1383,16.1701 1.8333,14.6601 C0.5273,13.1501 -0.0807,11.1581 0.0083,8.6861 C0.0973,6.2131 0.8473,4.2701 2.2573,2.8581 C3.6693,1.4461 5.6383,0.7841 8.1683,0.8761 L12.8883,1.0461 C15.4183,1.1371 17.3363,1.9381 18.6413,3.4481 C19.9473,4.9581 20.5543,6.9491 20.4653,9.4221" id="Fill-5" fill="#0A8366" mask="url(#mask-2)"></path>
                    </g>
                    <path d="M19.0419,92.2764953 L19.4849,90.4744953 C19.8439,89.0184953 19.7239,87.8594953 19.1249,86.9974953 C18.5249,86.1354953 17.5349,85.5354953 16.1509,85.1944953 L12.3289,84.2544953 C10.9269,83.9084953 9.7659,83.9804953 8.8449,84.4674953 C7.9239,84.9554953 7.2829,85.9264953 6.9249,87.3824953 L6.4809,89.1854953 L19.0419,92.2764953 Z M20.8129,99.1994953 L17.6459,98.4204953 L18.2639,95.9074953 L5.4849,92.7624953 L4.8669,95.2744953 L1.6999,94.4954953 L3.6349,86.6314953 C4.2669,84.0644953 5.3979,82.2724953 7.0279,81.2554953 C8.6599,80.2374953 10.7579,80.0454953 13.3249,80.6754953 L16.9289,81.5634953 C19.4959,82.1944953 21.2659,83.3394953 22.2369,84.9984953 C23.2099,86.6564953 23.3799,88.7684953 22.7479,91.3354953 L20.8129,99.1994953 Z" id="Fill-8" fill="#0A8366"></path>
                    <polygon id="Fill-10" fill="#0A8366" points="26.3192 79.4844953 8.4842 71.1574953 13.8382 59.6914953 16.8952 61.1194953 13.1122 69.2204953 17.3672 71.2084953 20.8172 63.8194953 23.8742 65.2474953 20.4242 72.6354953 24.8322 74.6934953 28.6862 66.4384953 31.7442 67.8664953"></polygon>
                    <path d="M27.1884,55.0771953 L29.7934,51.4771953 C30.3094,50.7651953 30.5204,50.0661953 30.4234,49.3831953 C30.3284,48.7011953 29.9604,48.1281953 29.3234,47.6671953 L29.0954,47.5021953 C28.4584,47.0401953 27.8014,46.8671953 27.1284,46.9811953 C26.4564,47.0971953 25.8564,47.5171953 25.3284,48.2471953 L22.7234,51.8471953 L27.1884,55.0771953 Z M33.7604,64.4141953 L17.8144,52.8751953 L22.8254,45.9501953 C23.5504,44.9471953 24.3574,44.2011953 25.2454,43.7091953 C26.1324,43.2191953 27.0434,42.9981953 27.9784,43.0501953 C28.9134,43.1001953 29.8134,43.4391953 30.6784,44.0661953 L30.9524,44.2641953 C31.9094,44.9561953 32.5184,45.7451953 32.7814,46.6291953 C33.0434,47.5141953 33.0704,48.3891953 32.8604,49.2541953 L33.2704,49.5511953 C33.7404,48.9661953 34.2904,48.6461953 34.9184,48.5921953 C35.5474,48.5381953 36.1814,48.7421953 36.8194,49.2031953 L42.0364,52.9781953 L39.8604,55.9851953 L35.0764,52.5231953 C34.7114,52.2601953 34.3464,52.1401953 33.9814,52.1661953 C33.6164,52.1901953 33.2744,52.4241953 32.9564,52.8641953 L29.9224,57.0561953 L35.9364,61.4071953 L33.7604,64.4141953 Z" id="Fill-12" fill="#0A8366"></path>
                    <path d="M43.2382,40.6631953 L47.1252,37.0791953 L38.8692,31.6491953 L38.4972,31.9921953 L43.2382,40.6631953 Z M44.2602,50.2761953 L34.7232,32.2971953 L39.4782,27.9131953 L56.6242,38.8791953 L53.8122,41.4711953 L50.0922,39.0111953 L44.9232,43.7751953 L47.0722,47.6841953 L44.2602,50.2761953 Z" id="Fill-14" fill="#0A8366"></path>
                    <polygon id="Fill-16" fill="#0A8366" points="62.0253 35.4336953 53.2333 21.6976953 48.4023 24.7886953 46.5833 21.9476953 59.3723 13.7616953 61.1913 16.6036953 56.3603 19.6966953 65.1523 33.4326953"></polygon>
                    <polygon id="Fill-18" fill="#0A8366" points="73.4286 28.7266953 66.0256 10.4886953 77.7496 5.72969526 79.0196 8.85569526 70.7336 12.2186953 72.4996 16.5706953 80.0556 13.5026953 81.3246 16.6296953 73.7696 19.6966953 75.5986 24.2046953 84.0396 20.7776953 85.3096 23.9046953"></polygon>
                    <polygon id="Fill-20" fill="#0A8366" points="87.4979 14.6953953 86.7879 11.5693953 94.9039 9.72539526 95.6139 12.8513953"></polygon>
                    <path d="M105.5936,9.35259526 L109.6096,9.12959526 C110.4886,9.08159526 111.1866,8.79859526 111.7016,8.28259526 C112.2176,7.76559526 112.4526,7.08559526 112.4056,6.24359526 L112.3906,5.96259526 C112.3436,5.12059526 112.0346,4.47159526 111.4656,4.01459526 C110.8956,3.55759526 110.1706,3.35459526 109.2906,3.40259526 L105.2766,3.62459526 L105.5936,9.35259526 Z M102.4736,20.1155953 L101.3836,0.461595263 L109.4696,0.013595263 C110.7046,-0.054404737 111.8086,0.132595263 112.7816,0.576595263 C113.7536,1.01959526 114.5316,1.67559526 115.1156,2.54459526 C115.6986,3.41459526 116.0246,4.46559526 116.0936,5.70159526 L116.1146,6.09359526 C116.1826,7.31159526 115.9646,8.38859526 115.4636,9.32759526 C114.9616,10.2655953 114.2516,11.0085953 113.3336,11.5565953 C112.4156,12.1055953 111.3586,12.4135953 110.1606,12.4795953 L105.7806,12.7215953 L106.1796,19.9095953 L102.4736,20.1155953 Z" id="Fill-22" fill="#0A8366"></path>
                    <path d="M125.8221,9.36339526 L130.2211,9.97839526 C131.0941,10.1003953 131.8091,9.96039526 132.3681,9.55439526 C132.9261,9.15039526 133.2591,8.55839526 133.3691,7.77839526 L133.4081,7.50039526 C133.5171,6.72039526 133.3631,6.05939526 132.9471,5.51839526 C132.5301,4.97739526 131.8771,4.64539526 130.9851,4.52039526 L126.5861,3.90539526 L125.8221,9.36339526 Z M120.6491,19.5423953 L123.3771,0.049395263 L131.8431,1.23339526 C133.0681,1.40439526 134.1051,1.76739526 134.9561,2.32239526 C135.8051,2.87739526 136.4261,3.57839526 136.8191,4.42839526 C137.2111,5.27839526 137.3331,6.23239526 137.1851,7.29039526 L137.1381,7.62539526 C136.9741,8.79439526 136.5631,9.70239526 135.9051,10.3483953 C135.2471,10.9943953 134.4861,11.4273953 133.6231,11.6473953 L133.5521,12.1483953 C134.2901,12.2903953 134.8301,12.6253953 135.1721,13.1563953 C135.5131,13.6863953 135.6311,14.3423953 135.5211,15.1213953 L134.6291,21.4993953 L130.9531,20.9843953 L131.7711,15.1353953 C131.8341,14.6903953 131.7681,14.3123953 131.5751,14.0013953 C131.3821,13.6903953 131.0161,13.4973953 130.4781,13.4223953 L125.3541,12.7053953 L124.3251,20.0563953 L120.6491,19.5423953 Z" id="Fill-24" fill="#0A8366"></path>
                    <path d="M147.4862,22.4424953 C148.7912,22.9144953 149.9412,22.9014953 150.9382,22.4044953 C151.9342,21.9084953 152.6632,21.0244953 153.1222,19.7544953 L154.8032,15.1004953 C155.2622,13.8314953 155.2672,12.6874953 154.8182,11.6684953 C154.3692,10.6484953 153.4922,9.90349526 152.1882,9.43149526 C150.9012,8.96649526 149.7552,8.98049526 148.7492,9.47449526 C147.7432,9.96749526 147.0112,10.8494953 146.5522,12.1194953 L144.8712,16.7734953 C144.4122,18.0434953 144.4112,19.1894953 144.8692,20.2114953 C145.3262,21.2334953 146.1992,21.9774953 147.4862,22.4424953 M146.3582,25.5634953 C144.0312,24.7224953 142.4112,23.4144953 141.4982,21.6384953 C140.5852,19.8644953 140.5572,17.7864953 141.4182,15.4064953 L143.0232,10.9634953 C143.8832,8.58349526 145.2322,7.00349526 147.0692,6.22149526 C148.9062,5.44049526 150.9882,5.46949526 153.3152,6.31049526 C155.6422,7.15249526 157.2632,8.46049526 158.1762,10.2354953 C159.0902,12.0104953 159.1162,14.0884953 158.2562,16.4674953 L156.6502,20.9114953 C155.7912,23.2914953 154.4422,24.8724953 152.6042,25.6534953 C150.7672,26.4344953 148.6852,26.4044953 146.3582,25.5634953" id="Fill-26" fill="#0A8366"></path>
                    <polygon id="Fill-28" fill="#0A8366" points="161.2792 32.0186953 169.6642 18.0306953 164.7442 15.0816953 166.4782 12.1866953 179.5032 19.9936953 177.7672 22.8876953 172.8472 19.9386953 164.4632 33.9266953"></polygon>
                    <polygon id="Fill-30" fill="#0A8366" points="172.3749 39.2539953 185.3959 24.4919953 194.8859 32.8619953 192.6529 35.3929953 185.9469 29.4779953 182.8409 32.9999953 188.9569 38.3939953 186.7249 40.9249953 180.6079 35.5299953 177.3909 39.1789953 184.2239 45.2049953 181.9909 47.7349953"></polygon>
                    <polygon id="Fill-32" fill="#0A8366" points="184.7147 50.9775953 199.6207 38.1235953 202.0457 40.9345953 187.1387 53.7895953"></polygon>
                    <g id="Group-36" transform="translate(190.000000, 47.129595)">
                        <mask id="mask-4" fill="white">
                            <use xlink:href="#path-3"></use>
                        </mask>
                        <g id="Clip-35"></g>
                        <polygon id="Fill-34" fill="#0A8366" mask="url(#mask-4)" points="0.5175 10.5072 17.2105 0.0772 20.9505 6.0632 8.4745 18.4662 8.7435 18.8962 23.2895 9.8072 25.2265 12.9072 8.5335 23.3372 4.7935 17.3512 17.2695 4.9472 17.0015 4.5182 2.4545 13.6072"></polygon>
                    </g>
                    <path d="M212.08,131.272595 C217.714,116.549595 207.329,100.609595 191.629,99.1935953 C185.642,98.6545953 179.493,97.1515953 173.465,94.6045953 C167.437,92.0575953 162.073,88.6975953 157.513,84.7815953 C145.553,74.5125953 126.885,78.1795953 120.257,92.4825953 C120.101,92.8175953 119.952,93.1565953 119.807,93.4985953 C111.241,113.775595 126.952,133.948595 152.318,144.664595 C177.684,155.379595 203.099,152.580595 211.665,132.302595 C211.809,131.960595 211.948,131.617595 212.08,131.272595" id="Fill-37" fill="#FD922D"></path>
                    <path d="M208.0765,126.268695 C213.7105,111.545695 203.3255,95.6056953 187.6255,94.1896953 C181.6385,93.6506953 175.4905,92.1476953 169.4615,89.6006953 C163.4335,87.0536953 158.0695,83.6936953 153.5095,79.7776953 C141.5495,69.5076953 122.8815,73.1756953 116.2535,87.4786953 C116.0975,87.8136953 115.9485,88.1526953 115.8035,88.4946953 C107.2375,108.771695 122.9485,128.944695 148.3145,139.660695 C173.6805,150.375695 199.0965,147.576695 207.6615,127.298695 C207.8065,126.956695 207.9445,126.613695 208.0765,126.268695 Z" id="Stroke-39" stroke="#005551" stroke-width="3"></path>
                    <path d="M186.1508,97.6943953 C186.2048,97.5673953 186.2558,97.4393953 186.3048,97.3113953 C186.7128,96.2463953 186.8918,95.1643953 186.8778,94.1073953 C181.1268,93.5133953 175.2398,92.0413953 169.4618,89.6003953 C163.6838,87.1603953 158.5248,83.9653953 154.0898,80.2573953 C153.3218,80.9823953 152.6718,81.8653953 152.1918,82.9003953 C152.1338,83.0253953 152.0778,83.1503953 152.0248,83.2783953 C148.8418,90.8113953 154.6788,98.3053953 164.1028,102.287395 C173.5258,106.267395 182.9688,105.227395 186.1508,97.6943953" id="Fill-41" fill="#005551"></path>
                    <path d="M117.8915,84.0000953 C108.3455,71.4550953 89.3255,71.8850953 79.8515,84.4840953 C76.2385,89.2880953 71.7225,93.7230953 66.3825,97.5050953 C61.0415,101.288095 55.3595,104.076095 49.6285,105.890095 C34.5995,110.646095 27.8825,128.445095 36.5485,141.614095 C36.7505,141.922095 36.9595,142.229095 37.1745,142.531095 C49.8975,160.494095 75.3205,157.768095 97.7915,141.852095 C120.2625,125.936095 131.2715,102.858095 118.5495,84.8960953 C118.3345,84.5920953 118.1155,84.2940953 117.8915,84.0000953" id="Fill-43" fill="#FFC776"></path>
                    <path d="M113.8885,78.9961953 C104.3425,66.4511953 85.3225,66.8811953 75.8475,79.4801953 C72.2355,84.2841953 67.7195,88.7191953 62.3785,92.5011953 C57.0385,96.2831953 51.3565,99.0721953 45.6255,100.886195 C30.5965,105.642195 23.8795,123.441195 32.5445,136.609195 C32.7475,136.918195 32.9565,137.224195 33.1715,137.527195 C45.8945,155.490195 71.3175,152.764195 93.7885,136.848195 C116.2595,120.932195 127.2685,97.8541953 114.5455,79.8921953 C114.3315,79.5881953 114.1125,79.2901953 113.8885,78.9961953 Z" id="Stroke-45" stroke="#005551" stroke-width="3"></path>
                    <path d="M78.0507,82.5791953 C77.9707,82.4671953 77.8897,82.3561953 77.8067,82.2471953 C77.1157,81.3391953 76.2897,80.6171953 75.3837,80.0721953 C71.8497,84.6471953 67.4977,88.8761953 62.3787,92.5011953 C57.2597,96.1271953 51.8267,98.8291953 46.3387,100.644195 C46.5507,101.680195 46.9587,102.698195 47.5857,103.651195 C47.6617,103.766195 47.7387,103.880195 47.8187,103.992195 C52.5457,110.666195 61.9907,109.652195 70.3387,103.739195 C78.6867,97.8271953 82.7777,89.2531953 78.0507,82.5791953" id="Fill-47" fill="#005551"></path>
                    <path d="M167.2928,134.163195 C166.7528,118.408195 150.9838,107.766195 135.9698,112.571195 C130.2458,114.404195 123.9968,115.412195 117.4528,115.412195 C110.9088,115.412195 104.6598,114.404195 98.9348,112.571195 C83.9218,107.766195 68.1518,118.408195 67.6128,134.163195 C67.5998,134.532195 67.5938,134.902195 67.5938,135.273195 C67.5938,157.286195 89.9168,169.755195 117.4528,169.755195 C144.9888,169.755195 167.3118,157.286195 167.3118,135.273195 C167.3118,134.902195 167.3058,134.532195 167.2928,134.163195" id="Fill-49" fill="#DA7664"></path>
                    <path d="M163.2894,129.159295 C162.7494,113.404295 146.9804,102.762295 131.9674,107.567295 C126.2424,109.399295 119.9934,110.408295 113.4494,110.408295 C106.9054,110.408295 100.6564,109.399295 94.9314,107.567295 C79.9184,102.762295 64.1484,113.404295 63.6094,129.159295 C63.5964,129.528295 63.5904,129.898295 63.5904,130.269295 C63.5904,152.282295 85.9134,164.751295 113.4494,164.751295 C140.9854,164.751295 163.3084,152.282295 163.3084,130.269295 C163.3084,129.898295 163.3024,129.528295 163.2894,129.159295 Z" id="Stroke-51" stroke="#005551" stroke-width="3"></path>
                    <path d="M131.973,111.369195 C131.973,111.231195 131.971,111.094195 131.966,110.957195 C131.927,109.816195 131.671,108.750195 131.246,107.782195 C125.718,109.473195 119.722,110.408195 113.45,110.408195 C107.177,110.408195 101.181,109.473195 95.653,107.782195 C95.228,108.750195 94.972,109.816195 94.933,110.957195 C94.929,111.094195 94.926,111.231195 94.926,111.369195 C94.926,119.548195 103.219,124.180195 113.45,124.180195 C123.68,124.180195 131.973,119.548195 131.973,111.369195" id="Fill-53" fill="#005551"></path>
                </g>
            </g>
        </g>
    </g>
</svg>