<?xml version="1.0" encoding="UTF-8"?>
<svg width="215px" height="225px" viewBox="0 0 215 225" version="1.1" xmlns="http://www.w3.org/2000/svg" xmlns:xlink="http://www.w3.org/1999/xlink">
    <title>dietcode-06-balanced</title>
    <defs>
        <polygon id="path-1" points="0.0102286086 0.661358696 18.2469998 0.661358696 18.2469998 24.5817506 0.0102286086 24.5817506"></polygon>
    </defs>
    <g id="Page-1" stroke="none" stroke-width="1" fill="none" fill-rule="evenodd">
        <g id="1.2-DietCodes" transform="translate(-969.000000, -3255.000000)">
            <g id="dietcodes" transform="translate(0.000000, 1488.000000)">
                <g id="Group-4-Copy-6" transform="translate(697.000000, 1736.000000)">
                    <g id="dietcode-06-balanced" transform="translate(272.000000, 31.000000)">
                        <path d="M208.66638,146.048332 C208.66638,197.358549 167.070891,220.931429 115.760674,220.931429 C64.4504565,220.931429 21.7285543,186.094418 21.7285543,134.783033 C21.7285543,83.4728152 75.714587,41.8784946 127.024804,41.8784946 C178.335022,41.8784946 208.66638,94.7381141 208.66638,146.048332" id="Fill-1" fill="#EBF5F7"></path>
                        <path d="M19.9108696,72.7205951 L22.1917391,69.3436929 C22.7187228,68.5631495 22.953587,67.8048071 22.8986685,67.0651603 C22.8425815,66.3266821 22.4604891,65.7190734 21.7523913,65.2411658 L21.4801359,65.0565462 C20.772038,64.5786386 20.0686141,64.4466005 19.3675272,64.6616005 C18.6687772,64.8754321 18.0483152,65.3825516 17.5084783,66.1794538 L15.2276087,69.556356 L19.9108696,72.7205951 Z M11.9605435,67.3491005 L14.2051902,64.0282853 C14.7076359,63.2839647 14.9308152,62.541981 14.8747283,61.8035027 C14.8186413,61.0650245 14.4552446,60.4691005 13.7833696,60.015731 L13.5099457,59.8311114 C12.821712,59.3648886 12.1311413,59.2433668 11.4405707,59.4630408 C10.7488315,59.6850516 10.1470652,60.1758125 9.63059783,60.9376603 L7.38711957,64.259644 L11.9605435,67.3491005 Z M19.0578804,81.0249701 L15.8994837,78.8924973 L17.5926087,76.3884484 L4.85035326,67.7791005 L3.15839674,70.2843179 L0,68.1506766 L6.6217663,58.3483125 C7.40581522,57.1880136 8.28567935,56.306981 9.25785326,55.7087201 C10.2311957,55.1116277 11.2372554,54.8136658 12.279538,54.8159891 C13.3218207,54.8206766 14.3419022,55.1595353 15.3397826,55.8325788 L15.612038,56.0171984 C16.4825543,56.6049429 17.0854891,57.2499429 17.4185054,57.9498614 C17.7515217,58.6521168 17.9174457,59.3251603 17.9162772,59.9724973 C17.9151087,60.6198342 17.842663,61.1865462 17.7001087,61.6702962 L18.1908696,62.0009755 C18.5694565,61.6761386 19.0672283,61.3781766 19.6865217,61.1082582 C20.3046467,60.8395082 21.0080707,60.7261658 21.797962,60.7705679 C22.5878533,60.8161386 23.4361685,61.144481 24.3440761,61.7567636 L24.615163,61.9402147 C25.6691304,62.6529864 26.4064402,63.507144 26.8282609,64.5061929 C27.2500815,65.5052418 27.3704348,66.570894 27.1869837,67.7031495 C27.0035326,68.8354049 26.525625,69.9723342 25.7532609,71.1162745 L19.0578804,81.0249701 Z" id="Fill-3" fill="#0A8366"></path>
                        <path d="M30.1213832,51.7198859 L34.5370625,47.4011902 L24.7066549,41.3426304 L24.2848342,41.7562717 L30.1213832,51.7198859 Z M31.6462473,62.9127391 L19.8878505,42.2411902 L25.290894,36.9573315 L45.6936929,49.1749402 L42.4990734,52.2994511 L38.0682038,49.5535272 L32.1942636,55.2977663 L34.8396984,59.7882283 L31.6462473,62.9127391 Z" id="Fill-5" fill="#0A8366"></path>
                        <polygon id="Fill-7" fill="#0A8366" points="49.1593995 46.737962 36.4206495 27.5889402 40.0312473 25.1865489 50.5872799 41.0533152 59.341519 35.2296196 61.5254049 38.5130435"></polygon>
                        <path d="M66.6363288,26.0533261 L72.3291549,23.6544402 L65.4059212,14.4129457 L64.8614103,14.6431359 L66.6363288,26.0533261 Z M63.9488288,37.025337 L60.5929592,13.4816685 L67.5582582,10.5476196 L82.0567364,29.3975109 L77.939019,31.1327011 L74.823856,26.9542228 L67.2532853,30.143 L68.0677147,35.2901467 L63.9488288,37.025337 Z" id="Fill-9" fill="#0A8366"></path>
                        <polygon id="Fill-11" fill="#0A8366" points="86.0132038 28.302413 81.6407582 5.72157065 89.7383125 4.15347283 98.0310027 22.9636359 98.6117364 22.8502935 94.8013288 3.17311957 98.9949973 2.36219565 103.368611 24.9418696 95.2710571 26.5099674 86.9771984 7.69980435 86.3964647 7.81314674 90.2068723 27.4903207"></polygon>
                        <g id="Group-15" transform="translate(108.668478, 0.507120)">
                            <mask id="mask-2" fill="white">
                                <use xlink:href="#path-1"></use>
                            </mask>
                            <g id="Clip-14"></g>
                            <path d="M9.12756793,24.5797582 C6.27998641,24.5341875 4.03767663,23.7033995 2.39830163,22.0885625 C0.760095109,20.4737255 -0.035638587,18.1870136 0.0122690217,15.2307636 L0.10107337,9.71087228 C0.148980978,6.75462228 1.01949728,4.49712228 2.70911685,2.93603533 C4.39873641,1.37494837 6.66908967,0.616605978 9.51550272,0.663345109 C12.3408832,0.708915761 14.5130842,1.51750272 16.032106,3.08560054 C17.5511277,4.65486685 18.2884375,6.7861712 18.2452038,9.48068207 L18.2416984,9.67698641 L13.9720788,9.6080462 L13.9755842,9.2797038 C13.9989538,7.92193207 13.637894,6.79902446 12.8982473,5.9098125 C12.1562636,5.0229375 11.006481,4.56489402 9.45240489,4.54035598 C7.91936141,4.51464946 6.70764946,4.96685054 5.81610054,5.89462228 C4.92455163,6.82239402 4.46650815,8.09603533 4.43963315,9.7155462 L4.34732337,15.3663071 C4.32161685,16.9659538 4.73876359,18.2489429 5.59876359,19.2152745 C6.45993207,20.1827745 7.6564538,20.6782092 9.19066576,20.7039158 C10.7459103,20.7284538 11.9085462,20.3042962 12.6774049,19.429106 C13.4474321,18.5550842 13.8435462,17.4485353 13.8657473,16.1129647 L13.8739266,15.5217147 L18.1458832,15.5918234 L18.1388723,16.0510353 C18.0944701,18.7443777 17.2882201,20.851144 15.7201223,22.3701658 C14.1496875,23.8891875 11.9529484,24.6253288 9.12756793,24.5797582" id="Fill-13" fill="#0A8366" mask="url(#mask-2)"></path>
                        </g>
                        <polygon id="Fill-16" fill="#0A8366" points="131.603253 25.513606 136.294693 2.99586141 150.768633 6.01287228 149.96472 9.8711875 139.735861 7.74105163 138.617628 13.1137147 147.944421 15.0557255 147.141677 18.9163777 137.812546 16.9720299 136.653416 22.5374918 147.075073 24.7085245 146.272329 28.5680082"></polygon>
                        <path d="M158.426957,28.8718125 L160.423886,29.7177908 C162.037554,30.402519 163.396495,30.4784701 164.501875,29.947981 C165.607255,29.4174918 166.484783,28.3857255 167.134457,26.8515136 L168.929239,22.6169484 C169.588261,21.0640408 169.720299,19.7109429 169.330027,18.5576549 C168.937418,17.4055353 167.936033,16.4859429 166.322364,15.8012147 L164.326603,14.9564049 L158.426957,28.8718125 Z M150.113234,29.6289864 L151.599538,26.1212147 L154.382853,27.2990408 L160.384158,13.1417582 L157.600842,11.9627636 L159.088315,8.45265489 L167.800489,12.1473832 C170.644565,13.3520842 172.501277,14.9891223 173.372962,17.0608342 C174.243478,19.1302092 174.077554,21.587519 172.871685,24.4304266 L171.17856,28.4242853 C169.973859,31.2683614 168.323967,33.0958614 166.231223,33.9102908 C164.13731,34.7235516 161.668315,34.5284158 158.825408,33.3225462 L150.113234,29.6289864 Z" id="Fill-18" fill="#0A8366"></path>
                        <path d="M57.6291141,185.222033 C74.8185978,185.222033 88.7527011,171.286761 88.7527011,154.097277 L26.5055272,154.097277 C26.5055272,171.286761 40.4396304,185.222033 57.6291141,185.222033" id="Fill-20" fill="#AACC76"></path>
                        <path d="M183.281658,185.222033 C200.471141,185.222033 214.405245,171.286761 214.405245,154.097277 L152.158071,154.097277 C152.158071,171.286761 166.092174,185.222033 183.281658,185.222033" id="Fill-22" fill="#008764"></path>
                        <path d="M120.442883,199.316802 C106.339351,199.316802 94.9057908,210.750361 94.9057908,224.853894 L145.979976,224.853894 C145.979976,210.750361 134.547584,199.316802 120.442883,199.316802" id="Fill-24" fill="#FFC666"></path>
                        <path d="M52.9552011,180.54812 C70.1446848,180.54812 84.078788,166.612848 84.078788,149.423364 L21.8316141,149.423364 C21.8316141,166.612848 35.7657174,180.54812 52.9552011,180.54812 Z" id="Stroke-26" stroke="#005551" stroke-width="3" stroke-linecap="round" stroke-linejoin="round"></path>
                        <polygon id="Stroke-28" stroke="#005551" stroke-width="3" stroke-linecap="round" stroke-linejoin="round" points="52.9552011 92.7764728 24.4536793 149.42313 81.4567228 149.42313"></polygon>
                        <path d="M178.607745,180.54812 C195.797228,180.54812 209.731332,166.612848 209.731332,149.423364 L147.484158,149.423364 C147.484158,166.612848 161.418261,180.54812 178.607745,180.54812 Z" id="Stroke-30" stroke="#005551" stroke-width="3" stroke-linecap="round" stroke-linejoin="round"></path>
                        <path d="M115.76897,194.642889 C101.665437,194.642889 90.2318777,206.076448 90.2318777,220.179981 L141.306063,220.179981 C141.306063,206.076448 129.873671,194.642889 115.76897,194.642889 Z" id="Stroke-32" stroke="#005551" stroke-width="3" stroke-linecap="round"></path>
                        <polygon id="Stroke-34" stroke="#005551" stroke-width="3" stroke-linecap="round" stroke-linejoin="round" points="178.607745 92.7764728 150.106223 149.42313 207.109266 149.42313"></polygon>
                        <line x1="115.76897" y1="194.642889" x2="115.76897" y2="105.888785" id="Stroke-36" stroke="#005551" stroke-width="3" stroke-linecap="round"></line>
                        <line x1="21.8313804" y1="92.6725951" x2="104.316598" y2="92.6725951" id="Stroke-38" stroke="#005551" stroke-width="3" stroke-linecap="round"></line>
                        <path d="M127.150766,92.7764728 C127.150766,99.0815815 122.038674,104.193674 115.733565,104.193674 C109.428457,104.193674 104.316364,99.0815815 104.316364,92.7764728 C104.316364,86.4713641 109.428457,81.3592717 115.733565,81.3592717 C122.038674,81.3592717 127.150766,86.4713641 127.150766,92.7764728 Z" id="Stroke-40" stroke="#005551" stroke-width="3" stroke-linecap="round"></path>
                        <line x1="209.731565" y1="92.6725951" x2="127.150533" y2="92.6725951" id="Stroke-42" stroke="#005551" stroke-width="3" stroke-linecap="round"></line>
                    </g>
                </g>
            </g>
        </g>
    </g>
</svg>