<?xml version="1.0" encoding="UTF-8"?>
<svg width="215px" height="231px" viewBox="0 0 215 231" version="1.1" xmlns="http://www.w3.org/2000/svg" xmlns:xlink="http://www.w3.org/1999/xlink">
    <title>diet-code-01-high-fat</title>
    <defs>
        <polygon id="path-1" points="0.0624615385 0.78 13.7716923 0.78 13.7716923 25.3183273 0.0624615385 25.3183273"></polygon>
    </defs>
    <g id="Page-1" stroke="none" stroke-width="1" fill="none" fill-rule="evenodd">
        <g id="1.2-DietCodes" transform="translate(-367.000000, -1802.000000)">
            <g id="dietcodes" transform="translate(0.000000, 1488.000000)">
                <g id="Group-4-Copy" transform="translate(95.000000, 283.000000)">
                    <g id="diet-code-01-high-fat" transform="translate(272.000000, 31.000000)">
                        <path d="M140.938093,216.832647 C93.3211086,238.638749 55.4114027,238.737238 33.5009851,191.346958 C11.5905674,143.957824 23.8385841,63.7902515 71.4555681,41.9841494 C119.072552,20.1780474 187.160432,60.7886343 209.07085,108.177768 C230.981267,155.568048 188.553926,195.026545 140.938093,216.832647" id="Fill-1" fill="#EBF5F7"></path>
                        <polygon id="Fill-3" fill="#0A8366" points="18.1112828 75.9326425 0 62.6083998 2.49068576 59.1633266 9.96843732 64.6634968 14.8735052 57.8778858 7.39689254 52.3777157 9.8875783 48.9326425 28 62.2568852 25.5081754 65.7019583 17.9791751 60.162731 13.0729684 66.9483419 20.6019686 72.4875693"></polygon>
                        <polygon id="Fill-5" fill="#0A8366" points="33.0062688 58.9326425 17 42.9685884 19.9948764 39.9326425 36 55.8966966"></polygon>
                        <path d="M46.5781247,47.2181133 C45.3214557,48.1334995 43.9732874,48.6834143 42.5336196,48.8689963 C41.0927936,49.0557169 39.6670245,48.8314245 38.2574705,48.1983963 C36.8479164,47.565368 35.5611337,46.4769238 34.3971224,44.9330636 L31.1413653,40.6111658 C29.3959274,38.2953755 28.7172103,36.0342351 29.1063723,33.824329 C29.4955343,31.6166999 30.8228547,29.6857361 33.0918082,28.0337146 C35.3422301,26.3953556 37.5254753,25.7145087 39.6403854,25.993451 C41.7564538,26.2735318 43.5690685,27.4154874 45.0817041,29.4215948 L45.1593049,29.525202 L41.757612,32.002665 L41.6024105,31.7965893 C41.1240656,31.1624225 40.5565376,30.6853742 39.8975103,30.3688601 C39.2396412,30.0512075 38.5273358,29.9396305 37.760594,30.0329908 C36.9938522,30.1263511 36.1993131,30.4724673 35.3792932,31.0690622 C34.1573708,31.9594005 33.4763373,33.0262124 33.3338762,34.2717752 C33.1925733,35.5184765 33.6002669,36.7754246 34.5557986,38.0437581 L37.8914729,42.4681245 C38.8342641,43.7205185 39.9426809,44.474232 41.215565,44.7281264 C42.488449,44.9842979 43.7543837,44.6541213 45.0098945,43.7387351 C46.2654052,42.8244875 46.937173,41.8316807 47.0205648,40.7603145 C47.1051149,39.690087 46.7727057,38.6562927 46.0233372,37.6612087 L45.8299144,37.4050372 L41.4854303,40.5679013 L39.3137673,37.6873951 L47.0599443,32.0459295 L54,41.2555794 L50.8067868,43.5804781 L49.5084219,41.8567285 L49.0381845,42.2005676 C49.135475,42.58084 49.1713798,43.0317018 49.1470572,43.5542917 C49.1215763,44.0780201 48.9223625,44.64729 48.5505738,45.2643787 C48.1776268,45.8803288 47.5197577,46.5315737 46.5781247,47.2181133" id="Fill-7" fill="#0A8366"></path>
                        <polygon id="Fill-9" fill="#0A8366" points="58.4910623 37.9326425 49 17.081777 52.9073354 15.2816771 56.8250903 23.8883682 64.520515 20.3405985 60.6016023 11.7339075 64.5077799 9.93264249 74 30.7823429 70.0926646 32.5836079 66.1471242 23.9163309 58.4516995 27.4641005 62.39724 36.1313775"></polygon>
                        <polygon id="Fill-11" fill="#0A8366" points="76.906116 19.9326425 76 16.3421277 85.093884 13.9326425 86 17.5231572"></polygon>
                        <g id="Group-15" transform="translate(93.000000, 0.932642)">
                            <mask id="mask-2" fill="white">
                                <use xlink:href="#path-1"></use>
                            </mask>
                            <g id="Clip-14"></g>
                            <polygon id="Fill-13" fill="#0A8366" mask="url(#mask-2)" points="2.06230769 25.3183273 0.0624615385 2.15941818 13.3269231 0.779054545 13.6693846 4.74996364 4.38415385 5.71550909 4.86661538 11.3066909 13.4292308 10.4167818 13.7716923 14.3865091 5.21015385 15.2764182 6.04153846 24.9035091"></polygon>
                        </g>
                        <path d="M117.198103,15.3006713 L123.172155,15.761097 L121.31681,4.84307062 L120.745586,4.79938059 L117.198103,15.3006713 Z M110,23.4651056 L117.583453,1.93264249 L124.89036,2.49613184 L129,24.9326425 L124.679551,24.5988058 L123.85445,19.668554 L115.910582,19.0557734 L114.321582,23.7989422 L110,23.4651056 Z" id="Fill-16" fill="#0A8366"></path>
                        <polygon id="Fill-18" fill="#0A8366" points="136.673207 27.841831 141.427662 9.42869923 135 7.74173297 135.983081 3.93264249 153 8.3938866 152.015761 12.2041437 145.586941 10.5183441 140.832486 28.9326425"></polygon>
                        <path d="M156.513403,176.119888 C161.930102,159.893593 169.20182,143.292384 181.801685,131.755404 C182.176598,131.41279 182.548062,131.062101 182.916076,130.706797 C202.120633,112.130655 206.131981,85.0491472 189.82553,68.0891742 C173.520229,51.1268941 146.39418,54.1642774 127.188472,72.7404197 C126.821609,73.0957232 126.459346,73.4567946 126.103982,73.8190195 C114.152742,86.0308461 97.3506231,92.7170114 80.9866702,97.5574445 C69.4252942,100.977817 58.2284817,107.353669 48.6382784,116.629627 C20.1149274,144.219865 22.7025228,181.12759 46.9201151,206.319529 C71.1377073,231.510315 107.814859,235.444032 136.33821,207.854948 C145.927263,198.578989 152.686062,187.584192 156.513403,176.119888" id="Fill-20" fill="#A0CF6A"></path>
                        <path d="M85.8726722,182.821241 C69.7051707,184.212777 58.2241365,172.406362 60.226831,156.451531 C62.2306838,140.496701 76.9618978,126.43445 93.128241,125.044053 C109.295743,123.652518 120.776777,135.457794 118.772924,151.413763 C116.769071,167.368593 102.040174,181.429706 85.8726722,182.821241" id="Fill-22" fill="#005551"></path>
                        <path d="M151.513766,169.119252 C156.93048,152.89303 164.202219,136.293049 176.802119,124.75612 C177.175883,124.412354 177.548498,124.06282 177.916513,123.707518 C197.121125,105.130305 201.131334,78.0500725 184.825987,61.0890218 C168.51949,44.1268176 141.393364,47.1641872 122.188752,65.7414001 C121.821888,66.0967019 121.459623,66.4566181 121.104259,66.8199951 C109.152985,79.0306134 92.3508188,85.7167489 75.9868197,90.5571602 C64.4254111,93.9775177 53.227417,100.354494 43.6383366,109.630411 C15.1149052,137.220526 17.7025078,174.128086 41.9201684,199.318758 C66.1378291,224.510585 102.815084,228.444284 131.338515,200.85417 C140.927596,191.578253 147.686414,180.583506 151.513766,169.119252 Z" id="Stroke-24" stroke="#005551" stroke-width="3"></path>
                    </g>
                </g>
            </g>
        </g>
    </g>
</svg>