<?xml version="1.0" encoding="UTF-8"?>
<svg width="215px" height="227px" viewBox="0 0 215 227" version="1.1" xmlns="http://www.w3.org/2000/svg" xmlns:xlink="http://www.w3.org/1999/xlink">
    <title>dietcode-02-low-fat</title>
    <defs>
        <polygon id="path-1" points="0.850900415 0.0514446625 199.694186 0.0514446625 199.694186 192.044554 0.850900415 192.044554"></polygon>
        <polygon id="path-3" points="0.30121875 0.703571429 14.8430491 0.703571429 14.8430491 24.2216667 0.30121875 24.2216667"></polygon>
    </defs>
    <g id="Page-1" stroke="none" stroke-width="1" fill="none" fill-rule="evenodd">
        <g id="1.2-DietCodes" transform="translate(-969.000000, -1802.000000)">
            <g id="dietcodes" transform="translate(0.000000, 1488.000000)">
                <g id="Group-4-Copy-2" transform="translate(697.000000, 283.000000)">
                    <g id="dietcode-02-low-fat" transform="translate(272.000000, 31.000000)">
                        <g id="Group-3" transform="translate(15.000000, 34.000000)">
                            <mask id="mask-2" fill="white">
                                <use xlink:href="#path-1"></use>
                            </mask>
                            <g id="Clip-2"></g>
                            <path d="M195.191047,96.0481159 C213.050349,145.961078 175.527093,192.044787 122.560814,192.044787 C69.5945349,192.044787 16.4898837,147.415961 3.38174419,96.0481159 C-10.4775581,41.7344242 34.682907,0.0514446625 87.649186,0.0514446625 C140.615465,0.0514446625 176.699186,44.3683444 195.191047,96.0481159" id="Fill-1" fill="#EBF5F7" mask="url(#mask-2)"></path>
                        </g>
                        <polygon id="Fill-4" fill="#0A8366" points="16.2718362 60 0 43.960802 3.13219849 41 16.6144758 54.2882526 24.2104411 47.1075095 27 49.8573144"></polygon>
                        <path d="M34.3872896,39.7767368 C35.7037384,38.8684236 36.4710008,37.7692585 36.6913604,36.4757074 C36.9094364,35.1845125 36.5908855,33.8756461 35.7345659,32.5538206 L32.5958689,27.7059491 C31.7395493,26.3829455 30.691414,25.5783049 29.4503214,25.2920272 C28.2092288,25.0057495 26.9304582,25.3167672 25.6128677,26.2239024 C24.3135453,27.1192565 23.5508499,28.2160653 23.3236398,29.5143289 C23.0952879,30.8149486 23.4104135,32.123815 24.2667332,33.4468186 L27.4042884,38.29469 C28.260608,39.6165155 29.3133103,40.4188 30.5623952,40.6991872 C31.8126219,40.9795744 33.0868255,40.6720909 34.3872896,39.7767368 M36.4915524,43.027108 C34.1418113,44.6469921 31.8423076,45.2690277 29.5918996,44.8943926 C27.3414916,44.5197576 25.4142015,43.0919033 23.8088876,40.6131861 L20.8129106,35.9856188 C19.2075967,33.5069015 18.6686862,31.122432 19.1950374,28.8345666 C19.7213885,26.5467011 21.1588637,24.5922372 23.5097466,22.9723531 C25.858346,21.353647 28.1578496,20.7316115 30.4082577,21.1050684 C32.6586657,21.4808815 34.5859558,22.9075577 36.1912697,25.386275 L39.1872467,30.0150203 C40.7914188,32.4937376 41.3314711,34.8782071 40.8051199,37.1660726 C40.2787688,39.4551162 38.8401518,41.4084019 36.4915524,43.027108" id="Fill-6" fill="#0A8366"></path>
                        <polygon id="Fill-8" fill="#0A8366" points="50.6805045 35 40 14.338043 44.0697701 12.8767417 52.9760615 30.9580032 53.5361539 30.7566059 49.4769516 10.9388783 56.5608878 8.39799383 66.08833 26.2556106 66.6472482 26.0542133 61.965721 6.46013036 66.0366653 5 71 27.7122283 63.9148896 30.2531127 54.1702208 11.9856758 53.6101284 12.1859022 57.7632665 32.4602865"></polygon>
                        <polygon id="Fill-10" fill="#0A8366" points="75.5499366 16 75 12.3104089 85.4487962 11 86 14.6895911"></polygon>
                        <g id="Group-14" transform="translate(93.000000, 0.000000)">
                            <mask id="mask-4" fill="white">
                                <use xlink:href="#path-3"></use>
                            </mask>
                            <g id="Clip-13"></g>
                            <polygon id="Fill-12" fill="#0A8366" mask="url(#mask-4)" points="0.30121875 24.1311905 0.762267857 0.702619048 14.8430491 1.00619048 14.7645 5.02285714 4.90829464 4.81095238 4.79673214 10.4657143 13.8856607 10.6633333 13.8059732 14.6788095 4.71704464 14.4835714 4.52579464 24.2216667"></polygon>
                        </g>
                        <path d="M117.235636,16.6984554 L123.208545,17.8812561 L122.636242,6.43476042 L122.063939,6.3222784 L117.235636,16.6984554 Z M109,24.2405492 L119.215091,3 L126.522606,4.44603182 L128,28 L123.678364,27.1453685 L123.431939,21.9793126 L115.488788,20.4068834 L113.320485,25.0951807 L109,24.2405492 Z" id="Fill-15" fill="#0A8366"></path>
                        <polygon id="Fill-17" fill="#0A8366" points="136 31.4509921 142.684135 14.0031233 136.654422 11.6101415 138.037736 8 154 14.3338233 152.616687 17.9439647 146.586974 15.5509829 139.901711 33"></polygon>
                        <path d="M53.3352748,97.5537607 C40.0849225,89.8860499 24.3673837,90.4150589 12,97.557264 C12.0139784,111.86503 19.4155378,125.776915 32.6647252,133.445794 C45.9139126,141.114672 61.6326163,140.584495 74,133.44229 C73.9860216,119.133357 66.5844622,105.222639 53.3352748,97.5537607" id="Fill-19" fill="#005551"></path>
                        <g id="Group-24" transform="translate(27.000000, 107.000000)">
                            <line x1="46.783095" y1="26.7280043" x2="0.65847" y2="0.12243913" id="Fill-21" fill="#EBF5F7"></line>
                            <line x1="46.783095" y1="26.7280043" x2="0.65847" y2="0.12243913" id="Stroke-23" stroke="#EBF5F7" stroke-width="3" stroke-linecap="round"></line>
                        </g>
                        <path d="M176.772181,97.9981347 C187.705773,87.2670186 191.30125,72.0710557 187.582157,58.3922625 C173.64527,54.7408867 158.161411,58.2697797 147.227819,69.0008958 C136.294227,79.7320118 132.69875,94.9291303 136.417843,108.607923 C150.355907,112.259299 165.838589,108.729251 176.772181,97.9981347" id="Fill-25" fill="#005551"></path>
                        <g id="Group-30" transform="translate(136.000000, 73.000000)">
                            <line x1="0.875458529" y1="36.9551173" x2="37.8183879" y2="0.0631874057" id="Fill-27" fill="#EBF5F7"></line>
                            <line x1="0.875458529" y1="36.9551173" x2="37.8183879" y2="0.0631874057" id="Stroke-29" stroke="#EBF5F7" stroke-width="3" stroke-linecap="round"></line>
                        </g>
                        <path d="M118,165.000578 C118,187.64505 99.6438947,206 77.0005776,206 C54.3561053,206 36,187.64505 36,165.000578 C36,142.356105 54.3561053,124 77.0005776,124 C99.6438947,124 118,142.356105 118,165.000578" id="Fill-31" fill="#9DA4D7"></path>
                        <path d="M136,100.000578 C136,122.643895 117.643895,141 94.9994224,141 C72.3561053,141 54,122.643895 54,100.000578 C54,77.3561053 72.3561053,59 94.9994224,59 C117.643895,59 136,77.3561053 136,100.000578" id="Fill-33" fill="#9DA4D7"></path>
                        <path d="M68.5171248,130 C62.5755646,122.808422 59,113.549762 59,103.446752 C59,80.555859 77.3561053,62 99.9994224,62 C122.643895,62 141,80.555859 141,103.446752" id="Stroke-35" stroke="#005551" stroke-width="3"></path>
                        <path d="M64,84.7565986 C64.9639935,86.1105151 66.5326423,87 68.3143602,87 C70.3436989,87 72.1058374,85.8557147 73.0007274,84.1751905 C73.8956174,85.8557147 75.657756,87 77.6859429,87 C80.6216888,87 83,84.6071929 83,81.6561414 C83,79.6165803 81.8620961,77.8445596 80.1909438,76.944651 C81.8620961,76.0447425 83,74.2715635 83,72.2331606 C83,70.49936 82.1673031,68.9775069 80.8981027,68 C73.755107,71.78726 67.8582773,77.6302956 64,84.7565986" id="Fill-37" fill="#005551"></path>
                        <path d="M183,141 C183,163.644791 164.643895,182 141.999422,182 C119.356105,182 101,163.644791 101,141 C101,118.355209 119.356105,100 141.999422,100 C164.643895,100 183,118.355209 183,141" id="Fill-39" fill="#9DA4D7"></path>
                        <path d="M108,135.737616 C111.814925,117.053677 128.31168,103 148.084958,103 C170.681673,103 189,121.357002 189,144 C189,166.642998 170.681673,185 148.084958,185 C138.958652,185 130.531,182.005579 123.725469,176.945562" id="Stroke-41" stroke="#005551" stroke-width="3"></path>
                        <path d="M168.190739,149 C169.863165,148.105148 171,146.341933 171,144.313832 C171,141.379362 168.621516,139 165.686708,139 C163.657222,139 161.894955,140.139007 161,141.810089 C160.103893,140.139007 158.342778,139 156.313292,139 C153.378484,139 151,141.379362 151,144.313832 C151,146.341933 152.136835,148.105148 153.809261,149 C152.136835,149.894852 151,151.656916 151,153.685017 C151,156.619486 153.378484,159 156.313292,159 C158.342778,159 160.103893,157.860993 161,156.189911 C161.894955,157.860993 163.657222,159 165.686708,159 C168.621516,159 171,156.619486 171,153.685017 C171,151.656916 169.863165,149.894852 168.190739,149" id="Fill-43" fill="#005551"></path>
                        <path d="M124,167.999422 C124,190.643895 105.643895,209 83.0005776,209 C60.3561053,209 42,190.643895 42,167.999422 C42,145.356105 60.3561053,127 83.0005776,127 C105.643895,127 124,145.356105 124,167.999422 Z" id="Stroke-45" stroke="#005551" stroke-width="3"></path>
                        <path d="M83.1907395,164 C84.8631652,163.105148 86,161.343084 86,159.314983 C86,156.380514 83.6215158,154 80.6867081,154 C78.6572218,154 76.8949551,155.139007 76,156.810089 C75.1038931,155.139007 73.3427782,154 71.3132919,154 C68.3784842,154 66,156.380514 66,159.314983 C66,161.343084 67.1368348,163.105148 68.8092605,164 C67.1368348,164.894852 66,166.658067 66,168.685017 C66,171.619486 68.3784842,174 71.3132919,174 C73.3427782,174 75.1038931,172.860993 76,171.189911 C76.8949551,172.860993 78.6572218,174 80.6867081,174 C83.6215158,174 86,171.619486 86,168.685017 C86,166.658067 84.8631652,164.894852 83.1907395,164" id="Fill-47" fill="#005551"></path>
                    </g>
                </g>
            </g>
        </g>
    </g>
</svg>