<svg width="155" height="111" viewBox="0 0 155 111" fill="none" xmlns="http://www.w3.org/2000/svg">
<path d="M11.3511 100.687C12.078 100.23 12.7139 99.5913 13.1682 98.7697C13.6225 97.9481 13.8042 97.0352 13.8042 96.031C13.8042 95.0268 13.6225 94.1139 13.1682 93.2923C12.7139 92.4707 12.1688 91.8317 11.3511 91.3752C10.6243 90.9188 9.71573 90.6449 8.80718 90.6449C7.89863 90.6449 6.99008 90.9188 6.26324 91.3752C5.5364 91.8317 4.90041 92.4707 4.44614 93.2923C3.99186 94.1139 3.81016 95.0268 3.81016 96.031C3.81016 97.0352 3.99186 97.9481 4.44614 98.7697C4.90041 99.5913 5.44555 100.23 6.26324 100.687C6.99008 101.143 7.89863 101.417 8.80718 101.417C9.71573 101.417 10.6243 101.143 11.3511 100.687ZM16.1664 81.8811C16.439 82.1549 16.5299 82.5201 16.5299 82.9765V96.031C16.5299 97.4916 16.1664 98.861 15.5305 100.048C14.8036 101.235 13.8951 102.239 12.7139 102.878C11.5328 103.608 10.2609 103.882 8.80718 103.882C7.3535 103.882 6.08153 103.517 4.80956 102.878C3.62845 102.147 2.7199 101.235 1.99306 100.048C1.35708 98.861 0.993652 97.4916 0.993652 96.031C0.993652 94.5704 1.26622 93.201 1.9022 92.0142C2.53819 90.8275 3.35588 89.8233 4.537 89.1843C5.62726 88.4539 6.89923 88.1801 8.1712 88.1801C9.26146 88.1801 10.2609 88.4539 11.1694 88.9104C12.078 89.3668 12.8957 90.0059 13.5316 90.8275V82.9765C13.5316 82.5201 13.6225 82.1549 13.8951 81.8811C14.3493 81.6072 14.7128 81.5159 15.0762 81.5159C15.5304 81.5159 15.8939 81.6072 16.1664 81.8811Z" fill="white"/>
<path d="M19.8006 103.425C19.5281 103.152 19.4372 102.786 19.4372 102.421V89.6407C19.4372 89.1843 19.5281 88.8191 19.8006 88.5452C20.0732 88.2714 20.4366 88.1801 20.8 88.1801C21.2543 88.1801 21.6177 88.2714 21.7994 88.5452C22.072 88.8191 22.1629 89.1843 22.1629 89.6407V102.33C22.1629 102.786 22.072 103.06 21.7994 103.334C21.5269 103.608 21.1635 103.791 20.8 103.791C20.3458 103.882 20.0732 103.699 19.8006 103.425ZM19.5281 85.0762C19.1646 84.7111 18.9829 84.2546 18.9829 83.7069C18.9829 83.1591 19.1646 82.794 19.5281 82.3375C19.8915 81.9724 20.3458 81.7898 20.8 81.7898C21.3452 81.7898 21.7086 81.9724 22.072 82.3375C22.4354 82.7027 22.6171 83.1591 22.6171 83.7069C22.6171 84.2546 22.4354 84.6198 22.072 85.0762C21.7086 85.4414 21.2543 85.624 20.8 85.624C20.2549 85.624 19.8915 85.4414 19.5281 85.0762Z" fill="white"/>
<path d="M29.0678 91.7404C28.2501 92.4707 27.705 93.5662 27.4324 94.8442H36.7905C36.6088 93.5662 36.1545 92.562 35.4277 91.7404C34.7008 91.0101 33.6106 90.5536 32.4295 90.5536C31.0666 90.5536 29.9764 90.9188 29.0678 91.7404ZM39.0619 96.67C38.7893 96.9439 38.5168 97.0352 38.1533 97.0352H27.4324C27.6142 98.4045 28.2501 99.4087 29.2495 100.23C30.249 101.052 31.4301 101.417 32.8837 101.417C33.4289 101.417 34.0649 101.326 34.61 101.143C35.246 100.961 35.7002 100.687 36.1545 100.413C36.4271 100.23 36.6997 100.139 37.0631 100.139C37.4265 100.139 37.6991 100.23 37.8808 100.413C38.2442 100.687 38.4259 101.052 38.4259 101.417C38.4259 101.782 38.2442 102.056 37.9716 102.239C37.3356 102.786 36.5179 103.152 35.6094 103.517C34.7008 103.882 33.7923 103.973 32.8837 103.973C31.3392 103.973 29.9764 103.608 28.7044 102.969C27.5233 102.33 26.5239 101.326 25.8879 100.139C25.1611 98.9523 24.8885 97.5829 24.8885 96.031C24.8885 94.4791 25.2519 93.1097 25.8879 91.923C26.5239 90.7362 27.4324 89.732 28.6136 89.093C29.7947 88.4539 31.0666 88.0888 32.5203 88.0888C33.974 88.0888 35.246 88.4539 36.2454 89.093C37.3356 89.732 38.0625 90.6449 38.6985 91.8317C39.2436 93.0184 39.5162 94.2965 39.5162 95.8484C39.4253 96.1223 39.3344 96.4874 39.0619 96.67Z" fill="white"/>
<path d="M49.6919 101.417C49.9645 101.691 50.0553 102.056 50.0553 102.421C50.0553 102.878 49.8736 103.152 49.6011 103.425C49.3285 103.699 48.8742 103.791 48.4199 103.791H47.8748C46.9663 103.791 46.1486 103.517 45.3309 103.06C44.604 102.604 43.968 101.874 43.5138 101.052C43.0595 100.23 42.8778 99.2261 42.8778 98.2219V90.6449H41.6058C41.2424 90.6449 40.879 90.5536 40.6064 90.2797C40.4247 90.0972 40.243 89.8233 40.243 89.4581C40.243 89.093 40.3339 88.7278 40.6064 88.5452C40.879 88.2714 41.1515 88.1801 41.6058 88.1801H42.8778V82.9765C42.8778 82.5201 42.9687 82.2462 43.2412 81.9724C43.5138 81.6072 43.8772 81.5159 44.3315 81.5159C44.7857 81.5159 45.0583 81.6072 45.3309 81.8811C45.6034 82.1549 45.6943 82.5201 45.6943 82.8853V88.1801H48.0565C48.4199 88.1801 48.7834 88.2714 49.0559 88.5452C49.3285 88.8191 49.4193 89.093 49.4193 89.4581C49.4193 89.8233 49.3285 90.0972 49.0559 90.2797C48.7834 90.5536 48.5108 90.6449 48.0565 90.6449H45.6943V98.3132C45.6943 99.0436 45.876 99.6826 46.3303 100.23C46.7845 100.778 47.2388 100.961 47.8748 100.961H48.8742C49.1468 100.961 49.4194 101.143 49.6919 101.417Z" fill="white"/>
<path d="M54.5072 102.969C53.3261 102.239 52.4176 101.326 51.6907 100.139C51.0547 98.9523 50.6913 97.5829 50.6913 96.1223C50.6913 94.5704 51.0547 93.201 51.6907 92.0142C52.3267 90.8275 53.2352 89.8233 54.4164 89.1843C55.5975 88.5452 56.8695 88.1801 58.3231 88.1801C60.5037 88.1801 62.4116 89.0017 63.8653 90.7362C64.047 90.9188 64.1378 91.1926 64.1378 91.4665C64.1378 91.923 63.9561 92.1968 63.5019 92.562C63.3202 92.6533 63.1384 92.7446 62.8659 92.7446C62.4116 92.7446 62.0482 92.562 61.7756 92.1968C61.3213 91.6491 60.7762 91.2839 60.2311 91.1013C59.686 90.8275 59.05 90.7362 58.3231 90.7362C56.8695 90.7362 55.6883 91.1926 54.7798 92.1968C53.8712 93.201 53.417 94.4791 53.417 96.1223C53.417 97.1265 53.5987 98.0394 54.053 98.861C54.5072 99.6826 55.0523 100.322 55.87 100.778C56.5969 101.235 57.5054 101.508 58.5048 101.508C59.7768 101.508 60.7762 101.143 61.5939 100.504C61.9573 100.23 62.3208 100.139 62.5933 100.139C62.8659 100.139 63.1384 100.23 63.3202 100.413C63.6836 100.687 63.8653 101.052 63.8653 101.417C63.8653 101.691 63.7744 101.965 63.5019 102.147C62.139 103.425 60.5037 104.064 58.414 104.064C57.0512 103.973 55.6883 103.608 54.5072 102.969Z" fill="white"/>
<path d="M80.31 89.4581C80.31 89.6407 80.2192 89.9146 80.1283 90.1884L71.4971 109.816C71.3154 110.363 70.8611 110.729 70.4068 110.729C70.2251 110.729 69.9526 110.637 69.7709 110.546C69.2257 110.272 68.9532 109.907 68.9532 109.451C68.9532 109.177 69.044 108.994 69.1349 108.72L71.9514 102.239L65.5915 90.0059C65.5007 89.8233 65.4098 89.6407 65.4098 89.3668C65.4098 89.093 65.5007 88.9104 65.5915 88.6365C65.7732 88.4539 65.9549 88.2714 66.2275 88.1801C66.4092 88.0888 66.5909 88.0888 66.7726 88.0888C67.3178 88.0888 67.6812 88.3626 67.9538 88.9104L73.1325 99.3174L77.6752 88.9104C77.9478 88.3626 78.3112 88.0888 78.7655 88.0888C79.0381 88.0888 79.2198 88.1801 79.4015 88.2714C79.9466 88.5452 80.31 88.9104 80.31 89.4581Z" fill="white"/>
<path d="M91.1218 100.687C91.8486 100.23 92.4846 99.5913 92.9389 98.7697C93.3932 97.9481 93.5749 97.0352 93.5749 96.031C93.5749 95.0268 93.3932 94.1139 92.9389 93.2923C92.4846 92.4707 91.9395 91.8317 91.1218 91.3752C90.3949 90.9188 89.4864 90.6449 88.5778 90.6449C87.6693 90.6449 86.7607 90.9188 86.0339 91.3752C85.3071 91.8317 84.6711 92.4707 84.2168 93.2923C83.7625 94.1139 83.5808 95.0268 83.5808 96.031C83.5808 97.0352 83.7625 97.9481 84.2168 98.7697C84.6711 99.5913 85.2162 100.23 86.0339 100.687C86.7607 101.143 87.6693 101.417 88.5778 101.417C89.4864 101.417 90.3949 101.143 91.1218 100.687ZM92.5755 89.1843C93.7566 89.9146 94.6651 90.8275 95.392 92.0142C96.0279 93.201 96.3914 94.5704 96.3914 96.031C96.3914 97.4916 96.1188 98.861 95.4828 100.048C94.8468 101.235 94.0291 102.239 92.848 102.878C91.7578 103.608 90.4858 103.882 89.2138 103.882C88.1236 103.882 87.1242 103.608 86.2156 103.152C85.3071 102.695 84.4894 102.056 83.8534 101.235V108.994C83.8534 109.451 83.7625 109.816 83.49 110.09C83.2174 110.363 82.854 110.455 82.4906 110.455C82.0363 110.455 81.7637 110.363 81.4911 110.09C81.2186 109.816 81.1277 109.451 81.1277 108.994V96.031C81.1277 94.5704 81.4912 93.201 82.1271 92.0142C82.854 90.8275 83.7625 89.8233 84.9436 89.1843C86.1247 88.4539 87.3967 88.1801 88.8504 88.1801C90.0315 88.0888 91.3035 88.4539 92.5755 89.1843Z" fill="white"/>
<path d="M109.838 88.9104C110.837 89.4581 111.655 90.2797 112.291 91.3752C112.836 92.4707 113.2 93.7487 113.2 95.3007V102.33C113.2 102.786 113.109 103.06 112.836 103.334C112.564 103.608 112.2 103.791 111.837 103.791C111.382 103.791 111.11 103.608 110.837 103.334C110.565 103.06 110.474 102.695 110.474 102.33V95.3007C110.474 93.7487 110.11 92.562 109.293 91.8317C108.475 91.0101 107.385 90.6449 106.022 90.6449C105.204 90.6449 104.477 90.8275 103.841 91.1013C103.205 91.4665 102.66 91.8317 102.297 92.3794C101.934 92.9271 101.752 93.5662 101.752 94.2052V102.239C101.752 102.695 101.661 102.969 101.388 103.243C101.116 103.517 100.752 103.699 100.389 103.699C99.9347 103.699 99.6621 103.517 99.3896 103.243C99.117 102.969 99.0261 102.604 99.0261 102.239V82.9765C99.0261 82.5201 99.117 82.1549 99.3896 81.8811C99.6621 81.6072 100.026 81.5159 100.389 81.5159C100.843 81.5159 101.207 81.6072 101.388 81.8811C101.661 82.1549 101.752 82.5201 101.752 82.9765V90.0059C102.388 89.3668 103.024 88.9104 103.932 88.5452C104.75 88.1801 105.659 88.0888 106.567 88.0888C107.567 88.0888 108.748 88.3626 109.838 88.9104Z" fill="white"/>
<path d="M119.65 91.7404C118.833 92.4707 118.287 93.5662 118.015 94.8442H127.464C127.282 93.5662 126.828 92.562 126.101 91.7404C125.374 91.0101 124.284 90.5536 123.103 90.5536C121.649 90.5536 120.559 90.9188 119.65 91.7404ZM129.644 96.67C129.372 96.9439 129.099 97.0352 128.736 97.0352H118.015C118.197 98.4045 118.833 99.4087 119.832 100.23C120.831 101.052 122.012 101.417 123.466 101.417C124.011 101.417 124.647 101.326 125.192 101.143C125.828 100.961 126.283 100.687 126.737 100.413C127.009 100.23 127.282 100.139 127.645 100.139C128.009 100.139 128.281 100.23 128.463 100.413C128.827 100.687 129.008 101.052 129.008 101.417C129.008 101.782 128.827 102.056 128.554 102.239C127.918 102.786 127.1 103.152 126.192 103.517C125.283 103.882 124.375 103.973 123.466 103.973C121.922 103.973 120.559 103.608 119.287 102.969C118.106 102.33 117.106 101.326 116.47 100.139C115.743 98.9523 115.471 97.5829 115.471 96.031C115.471 94.4791 115.834 93.1097 116.47 91.923C117.106 90.7362 118.015 89.732 119.196 89.093C120.377 88.4539 121.649 88.0888 123.103 88.0888C124.556 88.0888 125.828 88.4539 126.828 89.093C127.918 89.732 128.645 90.6449 129.281 91.8317C129.826 93.0184 130.099 94.2965 130.099 95.8484C130.008 96.1223 129.917 96.4874 129.644 96.67Z" fill="white"/>
<path d="M142.182 88.4539C142.727 88.7278 143 89.1843 143 89.6407V89.9146C142.818 90.5536 142.455 90.8275 141.91 90.8275C141.819 90.8275 141.637 90.8275 141.455 90.7362C140.729 90.6449 140.093 90.5536 139.638 90.5536C138.275 90.5536 137.185 90.8275 136.368 91.4665C135.55 92.1055 135.096 92.9271 135.096 94.0226V102.421C135.096 102.878 135.005 103.243 134.732 103.517C134.46 103.791 134.187 103.882 133.642 103.882C133.188 103.882 132.824 103.791 132.643 103.517C132.37 103.243 132.279 102.878 132.279 102.421V89.6407C132.279 89.1843 132.37 88.8191 132.643 88.5452C132.915 88.2714 133.278 88.1801 133.642 88.1801C134.55 88.1801 135.005 88.6365 135.005 89.6407V90.1884C135.55 89.5494 136.277 89.0017 137.094 88.6365C137.912 88.2714 138.821 88.0888 139.729 88.0888C140.819 87.9975 141.546 88.1801 142.182 88.4539Z" fill="white"/>
<path d="M150 81C147.239 81 145 83.2388 145 86C145 88.7612 147.239 91 150 91C152.761 91 155 88.7612 155 86C155 83.2388 152.761 81 150 81ZM150 90.1518C147.708 90.1518 145.848 88.2924 145.848 86C145.848 83.7076 147.708 81.8482 150 81.8482C152.292 81.8482 154.152 83.7076 154.152 86C154.152 88.2924 152.292 90.1518 150 90.1518ZM150.977 86.4163C151.365 86.2734 151.852 85.8694 151.852 85.0859C151.852 84.2913 151.344 83.6228 150.242 83.6228H148.504C148.455 83.6228 148.415 83.6629 148.415 83.7121V88.2879C148.415 88.3371 148.455 88.3772 148.504 88.3772H149.113C149.162 88.3772 149.202 88.3371 149.202 88.2879V86.5491H150.192L151.025 88.3259C151.039 88.3571 151.07 88.3772 151.105 88.3772H151.797C151.812 88.3774 151.827 88.3736 151.84 88.3662C151.854 88.3589 151.865 88.3483 151.873 88.3354C151.881 88.3225 151.885 88.3077 151.886 88.2926C151.886 88.2774 151.883 88.2624 151.876 88.2489L150.977 86.4163ZM150.112 85.9219H149.202V84.2701H150.133C150.669 84.2701 151.036 84.5525 151.036 85.1127C151.036 85.6362 150.703 85.9219 150.112 85.9219Z" fill="white"/>
<path d="M75.3624 29.5734C75.3624 23.3221 77.7758 17.3112 81.8787 13.2239L82.12 32.9395C82.12 34.6225 83.5681 35.8247 85.0162 35.8247C86.7056 35.8247 87.9123 34.3821 87.9123 32.699L87.6709 8.65562C89.843 7.45345 92.2565 6.73215 94.6699 6.49172L95.1526 52.1742C84.0508 50.7316 75.3624 41.1142 75.3624 29.5734ZM62.5711 45.442L62.0884 25.9669C62.0884 24.2838 60.6404 23.0817 59.1923 23.0817C57.5029 23.0817 56.2962 24.5243 56.2962 26.2073L56.7789 50.0103C54.6068 51.2124 52.1933 51.9337 49.5385 52.1742C49.5385 51.9337 49.5385 51.9337 49.5385 51.6933L49.0558 13.7047C49.0558 12.0217 47.6078 10.8195 46.1597 10.8195C44.4703 10.5791 43.0222 12.0217 43.0222 13.7047L43.2636 51.6933V52.4146H36.2646L36.0232 6.25128H45.9183C51.952 6.25128 57.7442 8.65562 62.0884 12.9834C66.4326 17.3112 68.8461 23.0817 68.8461 29.3329C69.0874 35.1034 66.9153 41.1142 62.5711 45.442ZM117.598 52.4146H101.186L100.704 6.25128H107.703L108.185 45.442C108.185 47.1251 109.633 48.3272 111.081 48.3272C112.771 48.3272 113.977 46.8846 113.977 45.2016L113.736 6.25128H117.115C118.804 6.25128 120.011 4.80868 120.011 3.12564C120.011 1.4426 118.563 0.240434 117.115 0.240434L97.8074 0.480867C92.7392 0.480867 88.1536 1.92347 84.0508 4.32781C83.5681 4.56825 83.3268 4.56825 83.0854 5.04911C78.4999 7.93432 74.8797 12.0217 72.4662 16.8304C71.0182 13.9452 69.0874 11.06 66.674 8.65562C60.8817 2.88521 53.6414 0 45.9183 0H33.6098C33.3684 0 33.1271 0 32.8857 0C32.6444 0 32.4031 0 32.1617 0H26.3694C24.9214 0.240434 23.7147 1.68304 23.7147 3.36608C23.7147 5.04911 25.1627 6.25128 26.6108 6.25128H29.9896L30.4723 52.4146H27.0935C25.4041 52.4146 24.1973 53.8572 24.1973 55.5403C24.1973 57.2233 25.6454 58.4255 27.0935 58.4255L46.401 58.185C54.1241 58.185 61.3644 55.0594 66.674 49.5294C68.8461 47.3655 70.7768 44.7207 71.9836 41.8355C76.5691 51.4529 86.2229 57.9446 97.3247 58.4255H98.7728L117.356 58.185C119.046 58.185 120.252 56.7424 120.252 55.0594C120.494 53.6168 119.046 52.4146 117.598 52.4146Z" fill="white"/>
</svg>
