<svg width="30" height="21" viewBox="0 0 30 21" fill="none" xmlns="http://www.w3.org/2000/svg">
<path d="M2 19.2939C1.44772 19.2939 1 18.8462 1 18.2939C1 17.7417 1.44771 17.2939 2 17.2939H28C28.5523 17.2939 29 17.7417 29 18.2939C29 18.8462 28.5523 19.2939 28 19.2939H2ZM1 2.29395C1 1.74166 1.44772 1.29395 2 1.29395H28C28.5523 1.29395 29 1.74166 29 2.29395C29 2.84623 28.5523 3.29395 28 3.29395H2C1.44772 3.29395 1 2.84623 1 2.29395ZM2 11.2939C1.44772 11.2939 1 10.8462 1 10.2939C1 9.74166 1.44772 9.29395 2 9.29395H18C18.5523 9.29395 19 9.74166 19 10.2939C19 10.8462 18.5523 11.2939 18 11.2939H2Z" fill="#FAC777" stroke="white" stroke-width="2"/>
</svg>
