<svg width="160" height="25" viewBox="0 0 160 25" fill="none" xmlns="http://www.w3.org/2000/svg">
<path d="M49.1248 16.2431C49.737 15.8564 50.2726 15.3149 50.6552 14.6188C51.0378 13.9227 51.1908 13.1492 51.1908 12.2983C51.1908 11.4475 51.0378 10.674 50.6552 9.9779C50.2726 9.28177 49.8135 8.74033 49.1248 8.35359C48.5127 7.96685 47.7475 7.73481 46.9823 7.73481C46.2171 7.73481 45.4519 7.96685 44.8398 8.35359C44.2276 8.74033 43.692 9.28177 43.3094 9.9779C42.9268 10.674 42.7738 11.4475 42.7738 12.2983C42.7738 13.1492 42.9268 13.9227 43.3094 14.6188C43.692 15.3149 44.1511 15.8564 44.8398 16.2431C45.4519 16.6298 46.2171 16.8619 46.9823 16.8619C47.7475 16.8619 48.5127 16.6298 49.1248 16.2431ZM53.1803 0.309392C53.4099 0.541436 53.4864 0.850829 53.4864 1.23757V12.2983C53.4864 13.5359 53.1803 14.6961 52.6447 15.7017C52.0325 16.7072 51.2673 17.558 50.2726 18.0994C49.2779 18.7182 48.2066 18.9503 46.9823 18.9503C45.758 18.9503 44.6868 18.6409 43.6155 18.0994C42.6208 17.4807 41.8556 16.7072 41.2434 15.7017C40.7078 14.6961 40.4017 13.5359 40.4017 12.2983C40.4017 11.0608 40.6313 9.90055 41.1669 8.89503C41.7025 7.8895 42.3912 7.03867 43.3859 6.49724C44.3042 5.87845 45.3754 5.64641 46.4467 5.64641C47.3649 5.64641 48.2066 5.87845 48.9718 6.26519C49.737 6.65193 50.4256 7.19337 50.9613 7.8895V1.23757C50.9613 0.850829 51.0378 0.541436 51.2673 0.309392C51.6499 0.0773481 51.956 0 52.2621 0C52.6447 0 52.9507 0.0773481 53.1803 0.309392Z" fill="white"/>
<path d="M56.241 18.5635C56.0115 18.3315 55.935 18.0221 55.935 17.7127V6.88398C55.935 6.49724 56.0115 6.18784 56.241 5.9558C56.4706 5.72376 56.7767 5.64641 57.0827 5.64641C57.4653 5.64641 57.7714 5.72376 57.9244 5.9558C58.154 6.18784 58.2305 6.49724 58.2305 6.88398V17.6354C58.2305 18.0221 58.154 18.2541 57.9244 18.4862C57.6949 18.7182 57.3888 18.8729 57.0827 18.8729C56.7001 18.9503 56.4706 18.7956 56.241 18.5635ZM56.0115 3.01657C55.7054 2.70718 55.5524 2.32044 55.5524 1.85635C55.5524 1.39226 55.7054 1.08287 56.0115 0.696132C56.3175 0.38674 56.7001 0.232044 57.0827 0.232044C57.5418 0.232044 57.8479 0.38674 58.154 0.696132C58.4601 1.00552 58.6131 1.39226 58.6131 1.85635C58.6131 2.32044 58.4601 2.62983 58.154 3.01657C57.8479 3.32597 57.4653 3.48066 57.0827 3.48066C56.6236 3.48066 56.3175 3.32597 56.0115 3.01657Z" fill="white"/>
<path d="M64.0459 8.66298C63.3572 9.28177 62.8981 10.2099 62.6686 11.2928H70.55C70.3969 10.2099 70.0143 9.35912 69.4022 8.66298C68.79 8.0442 67.8718 7.65746 66.8771 7.65746C65.7293 7.65746 64.8111 7.96685 64.0459 8.66298ZM72.4629 12.8398C72.2334 13.0718 72.0038 13.1492 71.6977 13.1492H62.6686C62.8216 14.3094 63.3572 15.1602 64.1989 15.8564C65.0406 16.5525 66.0354 16.8619 67.2597 16.8619C67.7188 16.8619 68.2544 16.7845 68.7135 16.6298C69.2492 16.4751 69.6318 16.2431 70.0143 16.011C70.2439 15.8564 70.4735 15.779 70.7795 15.779C71.0856 15.779 71.3152 15.8564 71.4682 16.011C71.7743 16.2431 71.9273 16.5525 71.9273 16.8619C71.9273 17.1713 71.7743 17.4033 71.5447 17.558C71.0091 18.0221 70.3204 18.3315 69.5552 18.6409C68.7901 18.9503 68.0249 19.0276 67.2597 19.0276C65.9589 19.0276 64.8111 18.7182 63.7398 18.1768C62.7451 17.6354 61.9034 16.7845 61.3678 15.779C60.7556 14.7735 60.5261 13.6133 60.5261 12.2983C60.5261 10.9834 60.8321 9.8232 61.3678 8.81768C61.9034 7.81215 62.6686 6.96133 63.6633 6.41989C64.6581 5.87845 65.7293 5.56906 66.9536 5.56906C68.1779 5.56906 69.2492 5.87845 70.0909 6.41989C71.0091 6.96133 71.6212 7.73481 72.1569 8.74033C72.616 9.74586 72.8455 10.8287 72.8455 12.1436C72.769 12.3757 72.6925 12.6851 72.4629 12.8398Z" fill="white"/>
<path d="M81.4156 16.8619C81.6451 17.0939 81.7217 17.4033 81.7217 17.7127C81.7217 18.0994 81.5686 18.3315 81.3391 18.5635C81.1095 18.7956 80.7269 18.8729 80.3443 18.8729H79.8852C79.12 18.8729 78.4314 18.6409 77.7427 18.2541C77.1306 17.8674 76.5949 17.2486 76.2123 16.5525C75.8297 15.8564 75.6767 15.0055 75.6767 14.1547V7.73481H74.6055C74.2994 7.73481 73.9933 7.65746 73.7637 7.42541C73.6107 7.27072 73.4577 7.03867 73.4577 6.72928C73.4577 6.41989 73.5342 6.1105 73.7637 5.9558C73.9933 5.72376 74.2229 5.64641 74.6055 5.64641H75.6767V1.23757C75.6767 0.850829 75.7532 0.618785 75.9828 0.38674C76.2123 0.0773481 76.5184 0 76.901 0C77.2836 0 77.5131 0.0773481 77.7427 0.309392C77.9723 0.541436 78.0488 0.850829 78.0488 1.16022V5.64641H80.0383C80.3443 5.64641 80.6504 5.72376 80.88 5.9558C81.1095 6.18785 81.186 6.41989 81.186 6.72928C81.186 7.03867 81.1095 7.27072 80.88 7.42541C80.6504 7.65746 80.4208 7.73481 80.0383 7.73481H78.0488V14.232C78.0488 14.8508 78.2018 15.3923 78.5844 15.8564C78.967 16.3204 79.3496 16.4751 79.8852 16.4751H80.7269C80.9565 16.4751 81.186 16.6298 81.4156 16.8619Z" fill="white"/>
<path d="M85.4711 18.1768C84.4763 17.558 83.7111 16.7845 83.099 15.779C82.5634 14.7735 82.2573 13.6133 82.2573 12.3757C82.2573 11.0608 82.5634 9.90055 83.099 8.89503C83.6346 7.8895 84.3998 7.03867 85.3945 6.49724C86.3893 5.9558 87.4605 5.64641 88.6848 5.64641C90.5213 5.64641 92.1282 6.34254 93.3525 7.81215C93.5055 7.96685 93.582 8.19889 93.582 8.43094C93.582 8.81768 93.429 9.04972 93.0464 9.35912C92.8933 9.43646 92.7403 9.51381 92.5108 9.51381C92.1282 9.51381 91.8221 9.35912 91.5925 9.04972C91.2099 8.58564 90.7508 8.27624 90.2917 8.12155C89.8326 7.8895 89.297 7.81215 88.6848 7.81215C87.4605 7.81215 86.4658 8.19889 85.7006 9.04972C84.9354 9.90055 84.5528 10.9834 84.5528 12.3757C84.5528 13.2265 84.7059 14 85.0885 14.6961C85.4711 15.3923 85.9302 15.9337 86.6188 16.3204C87.231 16.7072 87.9962 16.9392 88.8379 16.9392C89.9091 16.9392 90.7508 16.6298 91.4395 16.0884C91.7456 15.8564 92.0516 15.779 92.2812 15.779C92.5108 15.779 92.7403 15.8564 92.8933 16.011C93.1994 16.2431 93.3525 16.5525 93.3525 16.8619C93.3525 17.0939 93.2759 17.326 93.0464 17.4807C91.8986 18.5635 90.5213 19.105 88.7614 19.105C87.6136 19.0276 86.4658 18.7182 85.4711 18.1768Z" fill="white"/>
<path d="M107.202 6.72928C107.202 6.88398 107.126 7.11602 107.049 7.34807L99.78 23.9779C99.627 24.442 99.2444 24.7514 98.8618 24.7514C98.7087 24.7514 98.4792 24.674 98.3262 24.5967C97.8671 24.3646 97.6375 24.0553 97.6375 23.6685C97.6375 23.4365 97.714 23.2818 97.7905 23.0497L100.163 17.558L94.8063 7.19337C94.7298 7.03867 94.6533 6.88398 94.6533 6.65193C94.6533 6.41989 94.7298 6.26519 94.8063 6.03315C94.9594 5.87845 95.1124 5.72376 95.3419 5.64641C95.495 5.56906 95.648 5.56906 95.801 5.56906C96.2602 5.56906 96.5662 5.80111 96.7958 6.26519L101.157 15.0829L104.983 6.26519C105.213 5.80111 105.519 5.56906 105.901 5.56906C106.131 5.56906 106.284 5.64641 106.437 5.72376C106.896 5.9558 107.202 6.26519 107.202 6.72928Z" fill="white"/>
<path d="M116.308 16.2431C116.92 15.8564 117.456 15.3149 117.838 14.6188C118.221 13.9227 118.374 13.1492 118.374 12.2983C118.374 11.4475 118.221 10.674 117.838 9.9779C117.456 9.28177 116.997 8.74033 116.308 8.35359C115.696 7.96685 114.931 7.73481 114.165 7.73481C113.4 7.73481 112.635 7.96685 112.023 8.35359C111.411 8.74033 110.875 9.28177 110.493 9.9779C110.11 10.674 109.957 11.4475 109.957 12.2983C109.957 13.1492 110.11 13.9227 110.493 14.6188C110.875 15.3149 111.334 15.8564 112.023 16.2431C112.635 16.6298 113.4 16.8619 114.165 16.8619C114.931 16.8619 115.696 16.6298 116.308 16.2431ZM117.532 6.49724C118.527 7.11602 119.292 7.8895 119.904 8.89503C120.44 9.90055 120.746 11.0608 120.746 12.2983C120.746 13.5359 120.517 14.6961 119.981 15.7017C119.445 16.7072 118.757 17.558 117.762 18.0994C116.844 18.7182 115.772 18.9503 114.701 18.9503C113.783 18.9503 112.941 18.7182 112.176 18.3315C111.411 17.9448 110.722 17.4033 110.187 16.7072V23.2818C110.187 23.6685 110.11 23.9779 109.88 24.2099C109.651 24.442 109.345 24.5193 109.039 24.5193C108.656 24.5193 108.427 24.442 108.197 24.2099C107.967 23.9779 107.891 23.6685 107.891 23.2818V12.2983C107.891 11.0608 108.197 9.90055 108.733 8.89503C109.345 7.8895 110.11 7.03867 111.105 6.49724C112.099 5.87845 113.171 5.64641 114.395 5.64641C115.39 5.56906 116.461 5.87845 117.532 6.49724Z" fill="white"/>
<path d="M132.071 6.26519C132.912 6.72928 133.601 7.42541 134.137 8.35359C134.596 9.28177 134.902 10.3646 134.902 11.6796V17.6354C134.902 18.0221 134.825 18.2541 134.596 18.4862C134.366 18.7182 134.06 18.8729 133.754 18.8729C133.372 18.8729 133.142 18.7182 132.912 18.4862C132.683 18.2541 132.606 17.9447 132.606 17.6354V11.6796C132.606 10.3646 132.3 9.35912 131.612 8.74033C130.923 8.0442 130.005 7.73481 128.857 7.73481C128.168 7.73481 127.556 7.8895 127.021 8.12155C126.485 8.43094 126.026 8.74033 125.72 9.20442C125.414 9.66851 125.261 10.2099 125.261 10.7514V17.558C125.261 17.9448 125.184 18.1768 124.955 18.4088C124.725 18.6409 124.419 18.7956 124.113 18.7956C123.73 18.7956 123.501 18.6409 123.271 18.4088C123.042 18.1768 122.965 17.8674 122.965 17.558V1.23757C122.965 0.850829 123.042 0.541436 123.271 0.309392C123.501 0.0773481 123.807 0 124.113 0C124.495 0 124.802 0.0773481 124.955 0.309392C125.184 0.541436 125.261 0.850829 125.261 1.23757V7.19337C125.796 6.65193 126.332 6.26519 127.097 5.9558C127.786 5.64641 128.551 5.56906 129.316 5.56906C130.158 5.56906 131.153 5.80111 132.071 6.26519Z" fill="white"/>
<path d="M140.335 8.66298C139.646 9.28177 139.187 10.2099 138.957 11.2928H146.915C146.762 10.2099 146.38 9.35912 145.768 8.66298C145.155 8.0442 144.237 7.65746 143.242 7.65746C142.018 7.65746 141.1 7.96685 140.335 8.66298ZM148.752 12.8398C148.522 13.0718 148.293 13.1492 147.987 13.1492H138.957C139.11 14.3094 139.646 15.1602 140.488 15.8564C141.33 16.5525 142.324 16.8619 143.549 16.8619C144.008 16.8619 144.543 16.7845 145.002 16.6298C145.538 16.4751 145.921 16.2431 146.303 16.011C146.533 15.8564 146.762 15.779 147.068 15.779C147.374 15.779 147.604 15.8564 147.757 16.011C148.063 16.2431 148.216 16.5525 148.216 16.8619C148.216 17.1713 148.063 17.4033 147.834 17.558C147.298 18.0221 146.609 18.3315 145.844 18.6409C145.079 18.9503 144.314 19.0276 143.549 19.0276C142.248 19.0276 141.1 18.7182 140.029 18.1768C139.034 17.6354 138.192 16.7845 137.657 15.779C137.044 14.7735 136.815 13.6133 136.815 12.2983C136.815 10.9834 137.121 9.8232 137.657 8.81768C138.192 7.81215 138.957 6.96133 139.952 6.41989C140.947 5.87845 142.018 5.56906 143.242 5.56906C144.467 5.56906 145.538 5.87845 146.38 6.41989C147.298 6.96133 147.91 7.73481 148.446 8.74033C148.905 9.74586 149.134 10.8287 149.134 12.1436C149.058 12.3757 148.981 12.6851 148.752 12.8398Z" fill="white"/>
<path d="M159.311 5.87845C159.77 6.1105 160 6.49724 160 6.88398V7.11602C159.847 7.65746 159.541 7.8895 159.082 7.8895C159.005 7.8895 158.852 7.8895 158.699 7.81215C158.087 7.73481 157.551 7.65746 157.169 7.65746C156.021 7.65746 155.103 7.8895 154.414 8.43094C153.725 8.97237 153.343 9.66851 153.343 10.5967V17.7127C153.343 18.0994 153.266 18.4088 153.037 18.6409C152.807 18.8729 152.578 18.9503 152.119 18.9503C151.736 18.9503 151.43 18.8729 151.277 18.6409C151.047 18.4088 150.971 18.0994 150.971 17.7127V6.88398C150.971 6.49724 151.047 6.18784 151.277 5.9558C151.506 5.72376 151.813 5.64641 152.119 5.64641C152.884 5.64641 153.266 6.03315 153.266 6.88398V7.34807C153.725 6.80663 154.338 6.34254 155.026 6.03315C155.715 5.72376 156.48 5.56906 157.245 5.56906C158.164 5.49171 158.776 5.64641 159.311 5.87845Z" fill="white"/>
<path d="M16.3749 9.51381C16.3749 7.50276 17.1401 5.56906 18.4409 4.25414L18.5175 10.5967C18.5175 11.1381 18.9766 11.5249 19.4357 11.5249C19.9713 11.5249 20.3539 11.0608 20.3539 10.5193L20.2774 2.78453C20.966 2.39779 21.7312 2.16575 22.4964 2.0884L22.6495 16.7845C19.1296 16.3204 16.3749 13.2265 16.3749 9.51381ZM12.3195 14.6188L12.1664 8.35359C12.1664 7.81215 11.7073 7.42541 11.2482 7.42541C10.7126 7.42541 10.33 7.8895 10.33 8.43094L10.483 16.0884C9.79436 16.4751 9.02917 16.7072 8.18747 16.7845C8.18747 16.7072 8.18747 16.7072 8.18747 16.6298L8.03443 4.40884C8.03443 3.8674 7.57532 3.48066 7.11621 3.48066C6.58058 3.40331 6.12147 3.8674 6.12147 4.40884L6.19799 16.6298V16.8619H3.97896L3.90244 2.01105H7.03969C8.95265 2.01105 10.7891 2.78453 12.1664 4.1768C13.5438 5.56906 14.3089 7.42541 14.3089 9.43646C14.3855 11.2928 13.6968 13.2265 12.3195 14.6188ZM29.7657 16.8619H24.5624L24.4094 2.01105H26.6284L26.7814 14.6188C26.7814 15.1602 27.2406 15.547 27.6997 15.547C28.2353 15.547 28.6179 15.0829 28.6179 14.5414L28.5414 2.01105H29.6126C30.1483 2.01105 30.5308 1.54696 30.5308 1.00552C30.5308 0.464088 30.0717 0.0773481 29.6126 0.0773481L23.4912 0.154696C21.8843 0.154696 20.4304 0.618784 19.1296 1.39227C18.9766 1.46961 18.9 1.46961 18.8235 1.62431C17.3697 2.55249 16.2219 3.8674 15.4567 5.41436C14.9976 4.48619 14.3855 3.55801 13.6203 2.78453C11.7838 0.928177 9.48828 0 7.03969 0H3.13725C3.06074 0 2.98422 0 2.9077 0C2.83118 0 2.75466 0 2.67814 0H0.841703C0.382592 0.0773481 0 0.541436 0 1.08287C0 1.62431 0.45911 2.01105 0.918221 2.01105H1.98948L2.14252 16.8619H1.07126C0.535629 16.8619 0.153037 17.326 0.153037 17.8674C0.153037 18.4088 0.612147 18.7956 1.07126 18.7956L7.19273 18.7182C9.64132 18.7182 11.9369 17.7127 13.6203 15.9337C14.3089 15.2376 14.9211 14.3867 15.3037 13.4586C16.7575 16.5525 19.8183 18.6409 23.3381 18.7956H23.7972L29.6891 18.7182C30.2248 18.7182 30.6074 18.2541 30.6074 17.7127C30.6839 17.2486 30.2248 16.8619 29.7657 16.8619Z" fill="white"/>
</svg>
