<svg width="20" height="14" viewBox="0 0 20 14" fill="none" xmlns="http://www.w3.org/2000/svg">
<path d="M1.62217 8.09375V8.099C1.59407 8.21015 1.54535 8.3144 1.47881 8.40579C1.41226 8.49718 1.32919 8.57392 1.23435 8.63161C1.13951 8.68931 1.03476 8.72684 0.926077 8.74205C0.817397 8.75726 0.706926 8.74985 0.600978 8.72025C-0.118194 8.52075 0.00862023 7.651 0.00862023 7.651L0.0369866 7.5425C0.0369866 7.5425 0.0803708 7.3955 0.115412 7.28875C0.543612 6.0296 1.17398 4.85653 1.97925 3.82025C3.47933 1.90575 5.99727 0 9.99193 0C13.9883 0 16.5062 1.90575 18.0029 3.82025C18.8082 4.85653 19.4386 6.0296 19.8668 7.28875C19.9027 7.39694 19.9361 7.50606 19.9669 7.616L19.9719 7.63875L19.9752 7.64575V7.64925C20.0282 7.87197 19.9955 8.10757 19.8844 8.30529C19.7732 8.50301 19.5924 8.647 19.381 8.70622C19.1695 8.76545 18.9444 8.73517 18.754 8.62191C18.5637 8.50865 18.4234 8.32148 18.3634 8.10075L18.3617 8.09375L18.3483 8.05C18.2536 7.74027 18.1422 7.43645 18.0146 7.14C17.6744 6.34693 17.2369 5.60388 16.7131 4.92975C15.4733 3.346 13.4026 1.75 9.99193 1.75C6.58128 1.75 4.50887 3.346 3.27076 4.92975C2.59083 5.8056 2.05763 6.79618 1.69392 7.85925C1.6733 7.92244 1.65383 7.98604 1.63552 8.05L1.62217 8.09375Z" fill="#3F7B76"/>
<path d="M5.8204 9.625C5.8204 8.46468 6.25989 7.35188 7.04221 6.53141C7.82452 5.71094 8.88557 5.25 9.99193 5.25C11.0983 5.25 12.1593 5.71094 12.9416 6.53141C13.724 7.35188 14.1635 8.46468 14.1635 9.625C14.1635 10.7853 13.724 11.8981 12.9416 12.7186C12.1593 13.5391 11.0983 14 9.99193 14C8.88557 14 7.82452 13.5391 7.04221 12.7186C6.25989 11.8981 5.8204 10.7853 5.8204 9.625Z" fill="#3F7B76"/>
</svg>
