<svg width="414" height="394" viewBox="0 0 414 394" fill="none" xmlns="http://www.w3.org/2000/svg">
<path fill-rule="evenodd" clip-rule="evenodd" d="M1137.53 163.651L1083.76 203.383C1029.98 243.114 922.44 322.577 814.896 362.309C707.352 402.04 599.808 402.04 492.264 372.241C384.72 342.443 277.176 282.846 169.632 262.98C62.088 243.114 -45.4561 262.98 -99.228 272.913L-153 282.846V-15.1407H-99.228C-45.4561 -15.1407 62.088 -15.1407 169.632 -15.1407C277.176 -15.1407 384.72 -15.1407 492.264 -15.1407C599.808 -15.1407 707.352 -15.1407 814.896 -15.1407C922.44 -15.1407 1029.98 -15.1407 1083.76 -15.1407H1137.53V163.651Z" fill="#1C6859"/>
</svg>
