<svg width="414" height="896" viewBox="0 0 414 896" fill="none" xmlns="http://www.w3.org/2000/svg">
<path fill-rule="evenodd" clip-rule="evenodd" d="M839 662.337L769.083 713.968C699.167 765.599 559.333 868.86 419.5 920.49C279.667 972.121 139.833 972.121 0 933.398C-139.833 894.675 -279.667 817.229 -419.5 791.414C-559.333 765.599 -699.167 791.414 -769.083 804.321L-839 817.229V430H-769.083C-699.167 430 -559.333 430 -419.5 430C-279.667 430 -139.833 430 0 430C139.833 430 279.667 430 419.5 430C559.333 430 699.167 430 769.083 430H839V662.337Z" fill="white"/>
<path fill-rule="evenodd" clip-rule="evenodd" d="M-797 244.337L-727.083 295.968C-657.167 347.599 -517.333 450.86 -377.5 502.49C-237.667 554.121 -97.8334 554.121 42 515.398C181.833 476.675 321.667 399.229 461.5 373.414C601.333 347.599 741.167 373.414 811.083 386.321L881 399.229V12H811.083C741.167 12 601.333 12 461.5 12C321.667 12 181.833 12 42 12C-97.8334 12 -237.667 12 -377.5 12C-517.333 12 -657.167 12 -727.083 12H-797V244.337Z" fill="#EEF5F7"/>
<path fill-rule="evenodd" clip-rule="evenodd" d="M1366 232.337L1296.08 283.968C1226.17 335.599 1086.33 438.86 946.5 490.49C806.667 542.121 666.833 542.121 527 503.398C387.167 464.675 247.333 387.229 107.5 361.414C-32.3333 335.599 -172.167 361.414 -242.083 374.321L-312 387.229V0H-242.083C-172.167 0 -32.3333 0 107.5 0C247.333 0 387.167 0 527 0C666.833 0 806.667 0 946.5 0C1086.33 0 1226.17 0 1296.08 0H1366V232.337Z" fill="#1C6859"/>
<circle opacity="0.1" cx="396" cy="176" r="64" fill="#FDEAD5"/>
<circle opacity="0.3" cx="99" cy="483" r="64" fill="#FDEAD5"/>
<circle opacity="0.3" cx="309.5" cy="418.5" r="44.5" fill="#C8E4EC"/>
<circle opacity="0.3" cx="332.5" cy="546.5" r="54.5" fill="#F2E0E6"/>
<circle opacity="0.1" cx="132" cy="166" r="33" fill="#FDEAD5"/>
<circle opacity="0.1" cx="247" cy="279" r="40" fill="#EEF5F7"/>
<circle opacity="0.1" cx="20" cy="336" r="57" fill="#EEF5E5"/>
</svg>
